<?xml version="1.0" encoding="UTF-8" standalone="no"?><svg xmlns="http://www.w3.org/2000/svg" xmlns:xlink="http://www.w3.org/1999/xlink" contentStyleType="text/css" height="1267px" preserveAspectRatio="none" style="width:613px;height:1267px;background:#FFFFFF;" version="1.1" viewBox="0 0 613 1267" width="613px" zoomAndPan="magnify"><defs/><g><rect fill="#F5FFFA" height="1255.6" style="stroke:#181818;stroke-width:0.5;" width="333" x="34" y="6"/><text fill="#000000" font-family="sans-serif" font-size="13" font-weight="bold" lengthAdjust="spacing" textLength="34" x="181.5" y="19">Local</text><rect fill="#F8F8FF" height="1255.6" style="stroke:#181818;stroke-width:0.5;" width="139" x="369" y="6"/><text fill="#000000" font-family="sans-serif" font-size="13" font-weight="bold" lengthAdjust="spacing" textLength="49" x="412" y="19">Remote</text><rect fill="#ADD8E6" height="14" style="stroke:#800080;stroke-width:1.0;" width="10" x="182.5" y="195.3999"/><rect fill="#ADD8E6" height="23.8" style="stroke:#800080;stroke-width:1.0;" width="10" x="182.5" y="471.2"/><rect fill="#ADD8E6" height="14" style="stroke:#800080;stroke-width:1.0;" width="10" x="253.5" y="181.3999"/><rect fill="#ADD8E6" height="23.8" style="stroke:#800080;stroke-width:1.0;" width="10" x="253.5" y="495"/><rect fill="#ADD8E6" height="33.6" style="stroke:#800080;stroke-width:1.0;" width="10" x="253.5" y="654.6"/><rect fill="#ADD8E6" height="23.8" style="stroke:#800080;stroke-width:1.0;" width="10" x="253.5" y="964.0001"/><rect fill="#ADD8E6" height="14" style="stroke:#800080;stroke-width:1.0;" width="10" x="324" y="167.3999"/><rect fill="#ADD8E6" height="23.8" style="stroke:#800080;stroke-width:1.0;" width="10" x="324" y="940.2001"/><rect fill="#ADD8E6" height="33.6" style="stroke:#800080;stroke-width:1.0;" width="10" x="402" y="1123.6002"/><line style="stroke:#800080;stroke-width:0.5;stroke-dasharray:5.0,5.0;" x1="90" x2="90" y1="74.1999" y2="1210.0002"/><line style="stroke:#800080;stroke-width:0.5;stroke-dasharray:5.0,5.0;" x1="187" x2="187" y1="74.1999" y2="1210.0002"/><line style="stroke:#800080;stroke-width:0.5;stroke-dasharray:5.0,5.0;" x1="258" x2="258" y1="74.1999" y2="1210.0002"/><line style="stroke:#800080;stroke-width:0.5;stroke-dasharray:5.0,5.0;" x1="329" x2="329" y1="74.1999" y2="1210.0002"/><line style="stroke:#800080;stroke-width:0.5;stroke-dasharray:5.0,5.0;" x1="407" x2="407" y1="74.1999" y2="1210.0002"/><line style="stroke:#800080;stroke-width:0.5;stroke-dasharray:5.0,5.0;" x1="477" x2="477" y1="74.1999" y2="1210.0002"/><rect fill="#E2E2F0" height="47.5999" rx="2.5" ry="2.5" style="stroke:#181818;stroke-width:0.5;" width="105" x="38" y="25.6"/><text fill="#000000" font-family="sans-serif" font-size="14" font-style="italic" lengthAdjust="spacing" textLength="37" x="72" y="46.6">«files»</text><text fill="#000000" font-family="sans-serif" font-size="14" font-weight="bold" lengthAdjust="spacing" textLength="91" x="45" y="63.3999">Working Tree</text><rect fill="#E2E2F0" height="47.5999" rx="2.5" ry="2.5" style="stroke:#181818;stroke-width:0.5;" width="105" x="38" y="1209.0002"/><text fill="#000000" font-family="sans-serif" font-size="14" font-style="italic" lengthAdjust="spacing" textLength="37" x="72" y="1230.0001">«files»</text><text fill="#000000" font-family="sans-serif" font-size="14" font-weight="bold" lengthAdjust="spacing" textLength="91" x="45" y="1246.8">Working Tree</text><rect fill="#E2E2F0" height="47.5999" rx="2.5" ry="2.5" style="stroke:#181818;stroke-width:0.5;" width="69" x="153" y="25.6"/><text fill="#000000" font-family="sans-serif" font-size="14" font-style="italic" lengthAdjust="spacing" textLength="55" x="160" y="46.6">«staged»</text><text fill="#000000" font-family="sans-serif" font-size="14" font-weight="bold" lengthAdjust="spacing" textLength="38" x="168.5" y="63.3999">Index</text><rect fill="#E2E2F0" height="47.5999" rx="2.5" ry="2.5" style="stroke:#181818;stroke-width:0.5;" width="69" x="153" y="1209.0002"/><text fill="#000000" font-family="sans-serif" font-size="14" font-style="italic" lengthAdjust="spacing" textLength="55" x="160" y="1230.0001">«staged»</text><text fill="#000000" font-family="sans-serif" font-size="14" font-weight="bold" lengthAdjust="spacing" textLength="38" x="168.5" y="1246.8">Index</text><rect fill="#E2E2F0" height="47.5999" rx="2.5" ry="2.5" style="stroke:#181818;stroke-width:0.5;" width="53" x="232" y="25.6"/><text fill="#000000" font-family="sans-serif" font-size="14" font-style="italic" lengthAdjust="spacing" textLength="29" x="244" y="46.6">«ref»</text><text fill="#000000" font-family="sans-serif" font-size="14" font-weight="bold" lengthAdjust="spacing" textLength="39" x="239" y="63.3999">HEAD</text><rect fill="#E2E2F0" height="47.5999" rx="2.5" ry="2.5" style="stroke:#181818;stroke-width:0.5;" width="53" x="232" y="1209.0002"/><text fill="#000000" font-family="sans-serif" font-size="14" font-style="italic" lengthAdjust="spacing" textLength="29" x="244" y="1230.0001">«ref»</text><text fill="#000000" font-family="sans-serif" font-size="14" font-weight="bold" lengthAdjust="spacing" textLength="39" x="239" y="1246.8">HEAD</text><rect fill="#E2E2F0" height="47.5999" rx="2.5" ry="2.5" style="stroke:#181818;stroke-width:0.5;" width="68" x="295" y="25.6"/><text fill="#000000" font-family="sans-serif" font-size="14" font-style="italic" lengthAdjust="spacing" textLength="54" x="302" y="46.6">«history»</text><text fill="#000000" font-family="sans-serif" font-size="14" font-weight="bold" lengthAdjust="spacing" textLength="20" x="319" y="63.3999">DB</text><rect fill="#E2E2F0" height="47.5999" rx="2.5" ry="2.5" style="stroke:#181818;stroke-width:0.5;" width="68" x="295" y="1209.0002"/><text fill="#000000" font-family="sans-serif" font-size="14" font-style="italic" lengthAdjust="spacing" textLength="54" x="302" y="1230.0001">«history»</text><text fill="#000000" font-family="sans-serif" font-size="14" font-weight="bold" lengthAdjust="spacing" textLength="20" x="319" y="1246.8">DB</text><rect fill="#E2E2F0" height="47.5999" rx="2.5" ry="2.5" style="stroke:#181818;stroke-width:0.5;" width="68" x="373" y="25.6"/><text fill="#000000" font-family="sans-serif" font-size="14" font-style="italic" lengthAdjust="spacing" textLength="54" x="380" y="46.6">«history»</text><text fill="#000000" font-family="sans-serif" font-size="14" font-weight="bold" lengthAdjust="spacing" textLength="20" x="397" y="63.3999">DB</text><rect fill="#E2E2F0" height="47.5999" rx="2.5" ry="2.5" style="stroke:#181818;stroke-width:0.5;" width="68" x="373" y="1209.0002"/><text fill="#000000" font-family="sans-serif" font-size="14" font-style="italic" lengthAdjust="spacing" textLength="54" x="380" y="1230.0001">«history»</text><text fill="#000000" font-family="sans-serif" font-size="14" font-weight="bold" lengthAdjust="spacing" textLength="20" x="397" y="1246.8">DB</text><rect fill="#E2E2F0" height="47.5999" rx="2.5" ry="2.5" style="stroke:#181818;stroke-width:0.5;" width="53" x="451" y="25.6"/><text fill="#000000" font-family="sans-serif" font-size="14" font-style="italic" lengthAdjust="spacing" textLength="29" x="463" y="46.6">«ref»</text><text fill="#000000" font-family="sans-serif" font-size="14" font-weight="bold" lengthAdjust="spacing" textLength="39" x="458" y="63.3999">HEAD</text><rect fill="#E2E2F0" height="47.5999" rx="2.5" ry="2.5" style="stroke:#181818;stroke-width:0.5;" width="53" x="451" y="1209.0002"/><text fill="#000000" font-family="sans-serif" font-size="14" font-style="italic" lengthAdjust="spacing" textLength="29" x="463" y="1230.0001">«ref»</text><text fill="#000000" font-family="sans-serif" font-size="14" font-weight="bold" lengthAdjust="spacing" textLength="39" x="458" y="1246.8">HEAD</text><rect fill="#ADD8E6" height="14" style="stroke:#800080;stroke-width:1.0;" width="10" x="182.5" y="195.3999"/><rect fill="#ADD8E6" height="23.8" style="stroke:#800080;stroke-width:1.0;" width="10" x="182.5" y="471.2"/><rect fill="#ADD8E6" height="14" style="stroke:#800080;stroke-width:1.0;" width="10" x="253.5" y="181.3999"/><rect fill="#ADD8E6" height="23.8" style="stroke:#800080;stroke-width:1.0;" width="10" x="253.5" y="495"/><rect fill="#ADD8E6" height="33.6" style="stroke:#800080;stroke-width:1.0;" width="10" x="253.5" y="654.6"/><rect fill="#ADD8E6" height="23.8" style="stroke:#800080;stroke-width:1.0;" width="10" x="253.5" y="964.0001"/><rect fill="#ADD8E6" height="14" style="stroke:#800080;stroke-width:1.0;" width="10" x="324" y="167.3999"/><rect fill="#ADD8E6" height="23.8" style="stroke:#800080;stroke-width:1.0;" width="10" x="324" y="940.2001"/><rect fill="#ADD8E6" height="33.6" style="stroke:#800080;stroke-width:1.0;" width="10" x="402" y="1123.6002"/><rect fill="#EEEEEE" height="3" style="stroke:#EEEEEE;stroke-width:1.0;" width="606.5" x="0" y="104.9999"/><line style="stroke:#191970;stroke-width:1.0;" x1="0" x2="606.5" y1="104.9999" y2="104.9999"/><line style="stroke:#191970;stroke-width:1.0;" x1="0" x2="606.5" y1="107.9999" y2="107.9999"/><rect fill="#EEEEEE" height="23.6" style="stroke:#191970;stroke-width:2.0;" width="89" x="258.75" y="94.1999"/><text fill="#000000" font-family="monospace" font-size="13" lengthAdjust="spacing" textLength="72" x="264.75" y="111.1999">git clone</text><text fill="#000000" font-family="sans-serif" font-size="13" lengthAdjust="spacing" textLength="4" x="336.75" y="111.1999"> </text><rect fill="#FFFFFF" height="23" style="stroke:#181818;stroke-width:0.5;" width="461" x="53" y="132.7999"/><text fill="#000000" font-family="sans-serif" font-size="13" lengthAdjust="spacing" textLength="108" x="229.5" y="149.7999">download new repo</text><polygon fill="#800080" points="345,163.3999,335,167.3999,345,171.3999,341,167.3999" style="stroke:#800080;stroke-width:1.0;"/><line style="stroke:#800080;stroke-width:1.5;stroke-dasharray:2.0,2.0;" x1="339" x2="476.5" y1="167.3999" y2="167.3999"/><polygon fill="#800080" points="274.5,177.3999,264.5,181.3999,274.5,185.3999,270.5,181.3999" style="stroke:#800080;stroke-width:1.0;"/><line style="stroke:#800080;stroke-width:1.5;stroke-dasharray:2.0,2.0;" x1="268.5" x2="328" y1="181.3999" y2="181.3999"/><polygon fill="#800080" points="203.5,191.3999,193.5,195.3999,203.5,199.3999,199.5,195.3999" style="stroke:#800080;stroke-width:1.0;"/><line style="stroke:#800080;stroke-width:1.5;stroke-dasharray:2.0,2.0;" x1="197.5" x2="257.5" y1="195.3999" y2="195.3999"/><ellipse cx="90" cy="208.6499" fill="none" rx="4" ry="4" style="stroke:#800080;stroke-width:1.5;"/><polygon fill="#800080" points="107,205.3999,97,209.3999,107,213.3999,103,209.3999" style="stroke:#800080;stroke-width:1.0;"/><line style="stroke:#800080;stroke-width:1.5;stroke-dasharray:2.0,2.0;" x1="105" x2="186.5" y1="209.3999" y2="209.3999"/><rect fill="#EEEEEE" height="3" style="stroke:#EEEEEE;stroke-width:1.0;" width="606.5" x="0" y="263.1999"/><line style="stroke:#191970;stroke-width:1.0;" x1="0" x2="606.5" y1="263.1999" y2="263.1999"/><line style="stroke:#191970;stroke-width:1.0;" x1="0" x2="606.5" y1="266.1999" y2="266.1999"/><rect fill="#EEEEEE" height="23.6" style="stroke:#191970;stroke-width:2.0;" width="73" x="266.75" y="252.3999"/><text fill="#000000" font-family="monospace" font-size="13" lengthAdjust="spacing" textLength="56" x="272.75" y="269.3999">git add</text><text fill="#000000" font-family="sans-serif" font-size="13" lengthAdjust="spacing" textLength="4" x="328.75" y="269.3999"> </text><rect fill="#FFFFFF" height="23" style="stroke:#181818;stroke-width:0.5;" width="461" x="53" y="290.9999"/><text fill="#000000" font-family="sans-serif" font-size="13" lengthAdjust="spacing" textLength="119" x="224" y="307.9999">add changes to index</text><ellipse cx="187" cy="344.4499" fill="none" rx="4" ry="4" style="stroke:#800080;stroke-width:1.5;"/><polygon fill="#800080" points="170,341.1999,180,345.1999,170,349.1999,174,345.1999" style="stroke:#800080;stroke-width:1.0;"/><line style="stroke:#800080;stroke-width:1.5;stroke-dasharray:2.0,2.0;" x1="90.5" x2="176" y1="345.1999" y2="345.1999"/><polygon fill="#FFFFFF" points="15,324.5999,76,324.5999,86,335.5999,76,347.5999,15,347.5999,5,335.5999,15,324.5999" style="stroke:#181818;stroke-width:0.5;"/><text fill="#000000" font-family="sans-serif" font-size="13" lengthAdjust="spacing" textLength="57" x="17" y="341.5999">untracked</text><polygon fill="#FFFFFF" points="202,324.5999,244,324.5999,254,335.5999,244,347.5999,202,347.5999,192,335.5999,202,324.5999" style="stroke:#181818;stroke-width:0.5;"/><text fill="#000000" font-family="sans-serif" font-size="13" lengthAdjust="spacing" textLength="38" x="204" y="341.5999">staged</text><rect fill="#EEEEEE" height="3" style="stroke:#EEEEEE;stroke-width:1.0;" width="606.5" x="0" y="398.9999"/><line style="stroke:#191970;stroke-width:1.0;" x1="0" x2="606.5" y1="398.9999" y2="398.9999"/><line style="stroke:#191970;stroke-width:1.0;" x1="0" x2="606.5" y1="401.9999" y2="401.9999"/><rect fill="#EEEEEE" height="23.6" style="stroke:#191970;stroke-width:2.0;" width="121" x="242.75" y="388.1999"/><text fill="#000000" font-family="monospace" font-size="13" lengthAdjust="spacing" textLength="104" x="248.75" y="405.1999">git commit -a</text><text fill="#000000" font-family="sans-serif" font-size="13" lengthAdjust="spacing" textLength="4" x="352.75" y="405.1999"> </text><rect fill="#FFFFFF" height="23" style="stroke:#181818;stroke-width:0.5;" width="461" x="53" y="426.7999"/><text fill="#000000" font-family="sans-serif" font-size="13" lengthAdjust="spacing" textLength="122" x="222.5" y="443.8">add and store commit</text><polygon fill="#800080" points="170.5,467.2,180.5,471.2,170.5,475.2,174.5,471.2" style="stroke:#800080;stroke-width:1.0;"/><line style="stroke:#800080;stroke-width:1.5;stroke-dasharray:2.0,2.0;" x1="90.5" x2="176.5" y1="471.2" y2="471.2"/><polygon fill="#FFFFFF" points="15,460.4,76,460.4,86,471.4,76,483.4,15,483.4,5,471.4,15,460.4" style="stroke:#181818;stroke-width:0.5;"/><text fill="#000000" font-family="sans-serif" font-size="13" lengthAdjust="spacing" textLength="57" x="17" y="477.4">untracked</text><polygon fill="#800080" points="241.5,491,251.5,495,241.5,499,245.5,495" style="stroke:#800080;stroke-width:1.0;"/><line style="stroke:#800080;stroke-width:1.5;stroke-dasharray:2.0,2.0;" x1="187.5" x2="247.5" y1="495" y2="495"/><ellipse cx="328.5" cy="518.05" fill="none" rx="4" ry="4" style="stroke:#800080;stroke-width:1.5;"/><polygon fill="#800080" points="311.5,514.8,321.5,518.8,311.5,522.8,315.5,518.8" style="stroke:#800080;stroke-width:1.0;"/><line style="stroke:#800080;stroke-width:1.5;stroke-dasharray:2.0,2.0;" x1="258.5" x2="317.5" y1="518.8" y2="518.8"/><polygon fill="#FFFFFF" points="344,508,409,508,419,519,409,531,344,531,334,519,344,508" style="stroke:#181818;stroke-width:0.5;"/><text fill="#000000" font-family="sans-serif" font-size="13" lengthAdjust="spacing" textLength="61" x="346" y="525">committed</text><rect fill="#EEEEEE" height="3" style="stroke:#EEEEEE;stroke-width:1.0;" width="606.5" x="0" y="582.4"/><line style="stroke:#191970;stroke-width:1.0;" x1="0" x2="606.5" y1="582.4" y2="582.4"/><line style="stroke:#191970;stroke-width:1.0;" x1="0" x2="606.5" y1="585.4" y2="585.4"/><rect fill="#EEEEEE" height="23.6" style="stroke:#191970;stroke-width:2.0;" width="97" x="254.75" y="571.6"/><text fill="#000000" font-family="monospace" font-size="13" lengthAdjust="spacing" textLength="80" x="260.75" y="588.6">git commit</text><text fill="#000000" font-family="sans-serif" font-size="13" lengthAdjust="spacing" textLength="4" x="340.75" y="588.6"> </text><rect fill="#FFFFFF" height="23" style="stroke:#181818;stroke-width:0.5;" width="461" x="53" y="610.2"/><text fill="#000000" font-family="sans-serif" font-size="13" lengthAdjust="spacing" textLength="74" x="246.5" y="627.2">store commit</text><polygon fill="#800080" points="241.5,650.6,251.5,654.6,241.5,658.6,245.5,654.6" style="stroke:#800080;stroke-width:1.0;"/><line style="stroke:#800080;stroke-width:1.5;stroke-dasharray:2.0,2.0;" x1="187.5" x2="247.5" y1="654.6" y2="654.6"/><polygon fill="#FFFFFF" points="130,643.8,172,643.8,182,654.8,172,666.8,130,666.8,120,654.8,130,643.8" style="stroke:#181818;stroke-width:0.5;"/><text fill="#000000" font-family="sans-serif" font-size="13" lengthAdjust="spacing" textLength="38" x="132" y="660.8">staged</text><ellipse cx="328.5" cy="687.45" fill="none" rx="4" ry="4" style="stroke:#800080;stroke-width:1.5;"/><polygon fill="#800080" points="311.5,684.2,321.5,688.2,311.5,692.2,315.5,688.2" style="stroke:#800080;stroke-width:1.0;"/><line style="stroke:#800080;stroke-width:1.5;stroke-dasharray:2.0,2.0;" x1="258.5" x2="317.5" y1="688.2" y2="688.2"/><polygon fill="#FFFFFF" points="344,677.4,409,677.4,419,688.4,409,700.4,344,700.4,334,688.4,344,677.4" style="stroke:#181818;stroke-width:0.5;"/><text fill="#000000" font-family="sans-serif" font-size="13" lengthAdjust="spacing" textLength="61" x="346" y="694.4">committed</text><rect fill="#EEEEEE" height="3" style="stroke:#EEEEEE;stroke-width:1.0;" width="606.5" x="0" y="751.8001"/><line style="stroke:#191970;stroke-width:1.0;" x1="0" x2="606.5" y1="751.8001" y2="751.8001"/><line style="stroke:#191970;stroke-width:1.0;" x1="0" x2="606.5" y1="754.8001" y2="754.8001"/><rect fill="#EEEEEE" height="23.6" style="stroke:#191970;stroke-width:2.0;" width="89" x="258.75" y="741"/><text fill="#000000" font-family="monospace" font-size="13" lengthAdjust="spacing" textLength="72" x="264.75" y="758.0001">git fetch</text><text fill="#000000" font-family="sans-serif" font-size="13" lengthAdjust="spacing" textLength="4" x="336.75" y="758.0001"> </text><rect fill="#FFFFFF" height="23" style="stroke:#181818;stroke-width:0.5;" width="461" x="53" y="779.6001"/><text fill="#000000" font-family="sans-serif" font-size="13" lengthAdjust="spacing" textLength="128" x="219.5" y="796.6001">download commit data</text><ellipse cx="328.5" cy="813.4501" fill="none" rx="4" ry="4" style="stroke:#800080;stroke-width:1.5;"/><polygon fill="#800080" points="345.5,810.2001,335.5,814.2001,345.5,818.2001,341.5,814.2001" style="stroke:#800080;stroke-width:1.0;"/><line style="stroke:#800080;stroke-width:1.5;stroke-dasharray:2.0,2.0;" x1="343.5" x2="406" y1="814.2001" y2="814.2001"/><rect fill="#EEEEEE" height="3" style="stroke:#EEEEEE;stroke-width:1.0;" width="606.5" x="0" y="868.0001"/><line style="stroke:#191970;stroke-width:1.0;" x1="0" x2="606.5" y1="868.0001" y2="868.0001"/><line style="stroke:#191970;stroke-width:1.0;" x1="0" x2="606.5" y1="871.0001" y2="871.0001"/><rect fill="#EEEEEE" height="23.6" style="stroke:#191970;stroke-width:2.0;" width="81" x="262.75" y="857.2001"/><text fill="#000000" font-family="monospace" font-size="13" lengthAdjust="spacing" textLength="64" x="268.75" y="874.2001">git pull</text><text fill="#000000" font-family="sans-serif" font-size="13" lengthAdjust="spacing" textLength="4" x="332.75" y="874.2001"> </text><rect fill="#FFFFFF" height="23" style="stroke:#181818;stroke-width:0.5;" width="461" x="53" y="895.8001"/><text fill="#000000" font-family="sans-serif" font-size="13" lengthAdjust="spacing" textLength="208" x="179.5" y="912.8001">merge content into local from remote</text><polygon fill="#800080" points="345,936.2001,335,940.2001,345,944.2001,341,940.2001" style="stroke:#800080;stroke-width:1.0;"/><line style="stroke:#800080;stroke-width:1.5;stroke-dasharray:2.0,2.0;" x1="339" x2="476.5" y1="940.2001" y2="940.2001"/><polygon fill="#FFFFFF" points="492,929.4001,586,929.4001,596,940.4001,586,952.4001,492,952.4001,482,940.4001,492,929.4001" style="stroke:#181818;stroke-width:0.5;"/><text fill="#000000" font-family="sans-serif" font-size="13" lengthAdjust="spacing" textLength="90" x="494" y="946.4001">behind/diverged</text><polygon fill="#800080" points="274.5,960.0001,264.5,964.0001,274.5,968.0001,270.5,964.0001" style="stroke:#800080;stroke-width:1.0;"/><line style="stroke:#800080;stroke-width:1.5;stroke-dasharray:2.0,2.0;" x1="268.5" x2="328" y1="964.0001" y2="964.0001"/><ellipse cx="90" cy="987.0501" fill="none" rx="4" ry="4" style="stroke:#800080;stroke-width:1.5;"/><polygon fill="#800080" points="107,983.8001,97,987.8001,107,991.8001,103,987.8001" style="stroke:#800080;stroke-width:1.0;"/><line style="stroke:#800080;stroke-width:1.5;stroke-dasharray:2.0,2.0;" x1="105" x2="257.5" y1="987.8001" y2="987.8001"/><polygon fill="#FFFFFF" points="15,977.0001,75,977.0001,85,988.0001,75,1000.0001,15,1000.0001,5,988.0001,15,977.0001" style="stroke:#181818;stroke-width:0.5;"/><text fill="#000000" font-family="sans-serif" font-size="13" lengthAdjust="spacing" textLength="56" x="17" y="994.0001">up to date</text><rect fill="#EEEEEE" height="3" style="stroke:#EEEEEE;stroke-width:1.0;" width="606.5" x="0" y="1051.4001"/><line style="stroke:#191970;stroke-width:1.0;" x1="0" x2="606.5" y1="1051.4001" y2="1051.4001"/><line style="stroke:#191970;stroke-width:1.0;" x1="0" x2="606.5" y1="1054.4001" y2="1054.4001"/><rect fill="#EEEEEE" height="23.6" style="stroke:#191970;stroke-width:2.0;" width="81" x="262.75" y="1040.6001"/><text fill="#000000" font-family="monospace" font-size="13" lengthAdjust="spacing" textLength="64" x="268.75" y="1057.6001">git push</text><text fill="#000000" font-family="sans-serif" font-size="13" lengthAdjust="spacing" textLength="4" x="332.75" y="1057.6001"> </text><rect fill="#FFFFFF" height="23" style="stroke:#181818;stroke-width:0.5;" width="461" x="53" y="1079.2001"/><text fill="#000000" font-family="sans-serif" font-size="13" lengthAdjust="spacing" textLength="198" x="184.5" y="1096.2002">merge content from local to remote</text><polygon fill="#800080" points="390,1119.6002,400,1123.6002,390,1127.6002,394,1123.6002" style="stroke:#800080;stroke-width:1.0;"/><line style="stroke:#800080;stroke-width:1.5;stroke-dasharray:2.0,2.0;" x1="258.5" x2="396" y1="1123.6002" y2="1123.6002"/><polygon fill="#FFFFFF" points="152,1112.8002,243,1112.8002,253,1123.8002,243,1135.8002,152,1135.8002,142,1123.8002,152,1112.8002" style="stroke:#181818;stroke-width:0.5;"/><text fill="#000000" font-family="sans-serif" font-size="13" lengthAdjust="spacing" textLength="87" x="154" y="1129.8002">ahead/diverged</text><ellipse cx="477" cy="1156.4502" fill="none" rx="4" ry="4" style="stroke:#800080;stroke-width:1.5;"/><polygon fill="#800080" points="460,1153.2002,470,1157.2002,460,1161.2002,464,1157.2002" style="stroke:#800080;stroke-width:1.0;"/><line style="stroke:#800080;stroke-width:1.5;stroke-dasharray:2.0,2.0;" x1="407" x2="466" y1="1157.2002" y2="1157.2002"/><polygon fill="#FFFFFF" points="492,1146.4002,552,1146.4002,562,1157.4002,552,1169.4002,492,1169.4002,482,1157.4002,492,1146.4002" style="stroke:#181818;stroke-width:0.5;"/><text fill="#000000" font-family="sans-serif" font-size="13" lengthAdjust="spacing" textLength="56" x="494" y="1163.4002">up to date</text><!--MD5=[4f014fceecce2656c86f2ade690e04d7]
@startuml
'
' PlantUML Sequence diagram showing which parts of a repo are effected using
' various git commands.
'

' Setup
' ==========================================================================

<style>
  arrow {
    LineColor purple
    LineThickness 1.5
  }
  note {
    BackgroundColor white
  }
</style>

skinparam SequenceDividerFontStyle         normal
skinparam SequenceDividerBorderColor       MidnightBlue

skinparam SequenceLifelineBackgroundColor  LightBlue
skinparam SequenceLifelineBorderColor      purple

' Participants
' ==========================================================================

box Local #MintCream

participant "**Working Tree**" as tree  <<files>>
participant "**Index**"        as index <<staged>>
participant "**HEAD**"         as lhead <<ref>>
participant "**DB**"           as ldb   <<history>>

end box

box Remote #GhostWhite

participant "**DB**"           as rdb   <<history>>
participant "**HEAD**"         as rhead <<ref>>

end box

' Messages
' ==========================================================================

== ""git clone"" ==
  rnote across: download new repo

  rhead - ->  ldb    ++   :
  ldb   - ->  lhead  - -++ :
  lhead - ->  index  - -++ :
  index - ->o tree   - -   :

|||

== ""git add"" ==
  rnote across: add changes to index

  tree  - ->o index       :
  hnote left             : untracked
  hnote right            : staged

|||

== ""git commit -a"" ==
  rnote across: add and store commit

  tree  - ->  index  ++   :
  hnote left             : untracked
  index - ->  lhead  - -++ :
  lhead - ->o ldb    - -   :
  hnote right            : committed

|||

== ""git commit"" ==
  rnote across: store commit

  index - ->  lhead  ++   :
  hnote left             : staged
  lhead - ->o ldb    - -   :
  hnote right            : committed

|||

== ""git fetch"" ==
  rnote across: download commit data

  rdb   - ->o ldb         :

|||

== ""git pull"" ==
  rnote across: merge content into local from remote

  rhead - ->  ldb    ++   :
  hnote right            : behind/diverged
  ldb   - ->  lhead  - -++ :
  lhead - ->o tree   - -   :
  hnote left             : up to date

|||


== ""git push"" ==
  rnote across: merge content from local to remote

  lhead - ->  rdb    ++   :
  hnote left             : ahead/diverged
  rdb   - ->o rhead  - -   :
  hnote right            : up to date

|||
@enduml

@startuml


<style>
  arrow {
    LineColor purple
    LineThickness 1.5
  }
  note {
    BackgroundColor white
  }
</style>

skinparam SequenceDividerFontStyle         normal
skinparam SequenceDividerBorderColor       MidnightBlue

skinparam SequenceLifelineBackgroundColor  LightBlue
skinparam SequenceLifelineBorderColor      purple


box Local #MintCream

participant "**Working Tree**" as tree  <<files>>
participant "**Index**"        as index <<staged>>
participant "**HEAD**"         as lhead <<ref>>
participant "**DB**"           as ldb   <<history>>

end box

box Remote #GhostWhite

participant "**DB**"           as rdb   <<history>>
participant "**HEAD**"         as rhead <<ref>>

end box


== ""git clone"" ==
  rnote across: download new repo

  rhead - ->  ldb    ++   :
  ldb   - ->  lhead  - -++ :
  lhead - ->  index  - -++ :
  index - ->o tree   - -   :

|||

== ""git add"" ==
  rnote across: add changes to index

  tree  - ->o index       :
  hnote left             : untracked
  hnote right            : staged

|||

== ""git commit -a"" ==
  rnote across: add and store commit

  tree  - ->  index  ++   :
  hnote left             : untracked
  index - ->  lhead  - -++ :
  lhead - ->o ldb    - -   :
  hnote right            : committed

|||

== ""git commit"" ==
  rnote across: store commit

  index - ->  lhead  ++   :
  hnote left             : staged
  lhead - ->o ldb    - -   :
  hnote right            : committed

|||

== ""git fetch"" ==
  rnote across: download commit data

  rdb   - ->o ldb         :

|||

== ""git pull"" ==
  rnote across: merge content into local from remote

  rhead - ->  ldb    ++   :
  hnote right            : behind/diverged
  ldb   - ->  lhead  - -++ :
  lhead - ->o tree   - -   :
  hnote left             : up to date

|||


== ""git push"" ==
  rnote across: merge content from local to remote

  lhead - ->  rdb    ++   :
  hnote left             : ahead/diverged
  rdb   - ->o rhead  - -   :
  hnote right            : up to date

|||
@enduml

PlantUML version 1.2022.5(Sat Apr 30 10:55:52 GMT 2022)
(GPL source distribution)
Java Runtime: OpenJDK Runtime Environment
JVM: OpenJDK 64-Bit Server VM
Default Encoding: UTF-8
Language: en
Country: US
--></g></svg>