<?xml version="1.0" encoding="UTF-8"?><svg xmlns="http://www.w3.org/2000/svg" width="380" height="210" version="1.0" shape-rendering="geometricPrecision"><defs><filter id="shadowBlur" x="0" y="0" width="200%" height="200%"><feOffset in="SourceGraphic" dx="3.0003002" dy="3.0003002" result="offOut"></feOffset><feGaussianBlur in="offOut" stdDeviation="3"></feGaussianBlur></filter></defs><g stroke-width="1" stroke-linecap="square" stroke-linejoin="round"><rect x="0" y="0" width="380" height="210" style="fill: #ffffff"></rect><path stroke="#969696" fill="#969696" filter="url(#shadowBlur)" d="M25.0 35.0 L133.0 35.0 L133.0 89.0 L25.0 89.0 z"></path><path stroke="#969696" fill="#969696" filter="url(#shadowBlur)" d="M247.0 35.0 L355.0 35.0 L355.0 89.0 L247.0 89.0 z"></path><path stroke="#969696" fill="#969696" filter="url(#shadowBlur)" d="M137.0 35.0 L243.0 35.0 L243.0 89.0 L137.0 89.0 z"></path><path stroke="#969696" fill="#969696" filter="url(#shadowBlur)" d="M25.0 93.0 L133.0 93.0 L133.0 119.0 L25.0 119.0 z"></path><path stroke="#969696" fill="#969696" filter="url(#shadowBlur)" d="M247.0 93.0 L355.0 93.0 L355.0 119.0 L247.0 119.0 z"></path><path stroke="#969696" fill="#969696" filter="url(#shadowBlur)" d="M137.0 93.0 L243.0 93.0 L243.0 119.0 L137.0 119.0 z"></path><path stroke="#969696" fill="#969696" filter="url(#shadowBlur)" d="M45.0 154.0 Q45.0 147.0 50.0 147.0 L90.0 147.0 Q95.0 147.0 95.0 154.0 L95.0 168.0 L95.0 168.0 Q95.0 175.0 90.0 175.0 L50.0 175.0 L50.0 175.0 Q45.0 175.0 45.0 168.0 L45.0 154.0 z"></path><path stroke="#000000" stroke-width="1.0" stroke-linecap="round" stroke-linejoin="round" fill="white" d="M25.0 35.0 L133.0 35.0 L133.0 89.0 L25.0 89.0 z"></path><path stroke="#000000" stroke-width="1.0" stroke-linecap="round" stroke-linejoin="round" fill="white" d="M247.0 35.0 L355.0 35.0 L355.0 89.0 L247.0 89.0 z"></path><path stroke="#000000" stroke-width="1.0" stroke-linecap="round" stroke-linejoin="round" fill="white" d="M137.0 35.0 L243.0 35.0 L243.0 89.0 L137.0 89.0 z"></path><path stroke="#000000" stroke-width="1.0" stroke-linecap="round" stroke-linejoin="round" fill="#ccffff" d="M25.0 93.0 L133.0 93.0 L133.0 119.0 L25.0 119.0 z"></path><path stroke="#000000" stroke-width="1.0" stroke-linecap="round" stroke-linejoin="round" fill="#ccffff" d="M247.0 93.0 L355.0 93.0 L355.0 119.0 L247.0 119.0 z"></path><path stroke="#000000" stroke-width="1.0" stroke-linecap="round" stroke-linejoin="round" fill="#ccffff" d="M137.0 93.0 L243.0 93.0 L243.0 119.0 L137.0 119.0 z"></path><path stroke="#000000" stroke-width="1.0" stroke-linecap="round" stroke-linejoin="round" fill="#ccffff" d="M45.0 154.0 Q45.0 147.0 50.0 147.0 L90.0 147.0 Q95.0 147.0 95.0 154.0 L95.0 168.0 L95.0 168.0 Q95.0 175.0 90.0 175.0 L50.0 175.0 L50.0 175.0 Q45.0 175.0 45.0 168.0 L45.0 154.0 z"></path><text x="43" y="68" font-family="sans-serif" font-size="15" stroke="none" fill="#000000"><![CDATA[1 ]]></text><text x="153" y="68" font-family="sans-serif" font-size="15" stroke="none" fill="#000000"><![CDATA[2 ]]></text><text x="263" y="68" font-family="sans-serif" font-size="15" stroke="none" fill="#000000"><![CDATA[3 ]]></text><text x="42" y="110" font-family="sans-serif" font-size="15" stroke="none" fill="#000000"><![CDATA["a"]]></text><text x="152" y="110" font-family="sans-serif" font-size="15" stroke="none" fill="#000000"><![CDATA["b"]]></text><text x="263" y="110" font-family="sans-serif" font-size="15" stroke="none" fill="#000000"><![CDATA["c"]]></text><text x="110" y="166" font-family="sans-serif" font-size="15" stroke="none" fill="#000000"><![CDATA[key]]></text></g></svg>