<?xml version="1.0" encoding="UTF-8"?><svg xmlns="http://www.w3.org/2000/svg" width="460" height="308" version="1.0" shape-rendering="geometricPrecision"><defs><filter id="shadowBlur" x="0" y="0" width="200%" height="200%"><feOffset in="SourceGraphic" dx="3.0003002" dy="3.0003002" result="offOut"></feOffset><feGaussianBlur in="offOut" stdDeviation="3"></feGaussianBlur></filter></defs><g stroke-width="1" stroke-linecap="square" stroke-linejoin="round"><rect x="0" y="0" width="460" height="308" style="fill: #ffffff"></rect><path stroke="#969696" fill="#969696" filter="url(#shadowBlur)" d="M25.0 35.0 L435.0 35.0 L435.0 217.0 L25.0 217.0 z"></path><path stroke="#969696" fill="#969696" filter="url(#shadowBlur)" d="M67.0 93.0 L393.0 93.0 L393.0 187.0 L67.0 187.0 z"></path><path stroke="#969696" fill="#969696" filter="url(#shadowBlur)" d="M67.0 93.0 L173.0 93.0 L173.0 159.0 L67.0 159.0 z"></path><path stroke="#969696" fill="#969696" filter="url(#shadowBlur)" d="M177.0 93.0 L283.0 93.0 L283.0 159.0 L177.0 159.0 z"></path><path stroke="#969696" fill="#969696" filter="url(#shadowBlur)" d="M287.0 93.0 L393.0 93.0 L393.0 159.0 L287.0 159.0 z"></path><path stroke="#969696" fill="#969696" filter="url(#shadowBlur)" d="M67.0 163.0 L173.0 163.0 L173.0 187.0 L67.0 187.0 z"></path><path stroke="#969696" fill="#969696" filter="url(#shadowBlur)" d="M177.0 163.0 L283.0 163.0 L283.0 187.0 L177.0 187.0 z"></path><path stroke="#969696" fill="#969696" filter="url(#shadowBlur)" d="M287.0 163.0 L393.0 163.0 L393.0 187.0 L287.0 187.0 z"></path><path stroke="#969696" fill="#969696" filter="url(#shadowBlur)" d="M45.0 252.0 Q45.0 245.0 50.0 245.0 L90.0 245.0 Q95.0 245.0 95.0 252.0 L95.0 266.0 L95.0 266.0 Q95.0 273.0 90.0 273.0 L50.0 273.0 L50.0 273.0 Q45.0 273.0 45.0 266.0 L45.0 252.0 z"></path><path stroke="#000000" stroke-width="1.0" stroke-linecap="round" stroke-linejoin="round" fill="white" d="M25.0 35.0 L435.0 35.0 L435.0 217.0 L25.0 217.0 z"></path><path stroke="#000000" stroke-width="1.0" stroke-linecap="round" stroke-linejoin="round" fill="white" d="M67.0 93.0 L393.0 93.0 L393.0 187.0 L67.0 187.0 z"></path><path stroke="#000000" stroke-width="1.0" stroke-linecap="round" stroke-linejoin="round" fill="white" d="M67.0 93.0 L173.0 93.0 L173.0 159.0 L67.0 159.0 z"></path><path stroke="#000000" stroke-width="1.0" stroke-linecap="round" stroke-linejoin="round" fill="white" d="M177.0 93.0 L283.0 93.0 L283.0 159.0 L177.0 159.0 z"></path><path stroke="#000000" stroke-width="1.0" stroke-linecap="round" stroke-linejoin="round" fill="white" d="M287.0 93.0 L393.0 93.0 L393.0 159.0 L287.0 159.0 z"></path><path stroke="#000000" stroke-width="1.0" stroke-linecap="round" stroke-linejoin="round" fill="#ccffff" d="M67.0 163.0 L173.0 163.0 L173.0 187.0 L67.0 187.0 z"></path><path stroke="#000000" stroke-width="1.0" stroke-linecap="round" stroke-linejoin="round" fill="#ccffff" d="M177.0 163.0 L283.0 163.0 L283.0 187.0 L177.0 187.0 z"></path><path stroke="#000000" stroke-width="1.0" stroke-linecap="round" stroke-linejoin="round" fill="#ccffff" d="M287.0 163.0 L393.0 163.0 L393.0 187.0 L287.0 187.0 z"></path><path stroke="#000000" stroke-width="1.0" stroke-linecap="round" stroke-linejoin="round" fill="#ccffff" d="M45.0 252.0 Q45.0 245.0 50.0 245.0 L90.0 245.0 Q95.0 245.0 95.0 252.0 L95.0 266.0 L95.0 266.0 Q95.0 273.0 90.0 273.0 L50.0 273.0 L50.0 273.0 Q45.0 273.0 45.0 266.0 L45.0 252.0 z"></path><text x="41" y="68" font-family="sans-serif" font-size="15" stroke="none" fill="#000000"><![CDATA[sequence]]></text><text x="80" y="124" font-family="sans-serif" font-size="15" stroke="none" fill="#000000"><![CDATA[first]]></text><text x="80" y="138" font-family="sans-serif" font-size="15" stroke="none" fill="#000000"><![CDATA[item]]></text><text x="190" y="124" font-family="sans-serif" font-size="15" stroke="none" fill="#000000"><![CDATA[second]]></text><text x="190" y="138" font-family="sans-serif" font-size="15" stroke="none" fill="#000000"><![CDATA[item]]></text><text x="300" y="124" font-family="sans-serif" font-size="15" stroke="none" fill="#000000"><![CDATA[third]]></text><text x="300" y="138" font-family="sans-serif" font-size="15" stroke="none" fill="#000000"><![CDATA[item]]></text><text x="113" y="180" font-family="sans-serif" font-size="15" stroke="none" fill="#000000"><![CDATA[0 ]]></text><text x="223" y="180" font-family="sans-serif" font-size="15" stroke="none" fill="#000000"><![CDATA[1 ]]></text><text x="333" y="180" font-family="sans-serif" font-size="15" stroke="none" fill="#000000"><![CDATA[2 ]]></text><text x="114" y="264" font-family="sans-serif" font-size="15" stroke="none" fill="#000000"><![CDATA[index number]]></text></g></svg>