<?xml version="1.0" encoding="UTF-8"?><svg xmlns="http://www.w3.org/2000/svg" width="760" height="210" version="1.0" shape-rendering="geometricPrecision"><defs><style type="text/css">@font-face {
  font-family: sans-serif;
}</style><filter id="shadowBlur" x="0" y="0" width="200%" height="200%"><feOffset in="SourceGraphic" dx="3.0003002" dy="3.0003002" result="offOut"></feOffset><feGaussianBlur in="offOut" stdDeviation="3"></feGaussianBlur></filter></defs><g stroke-width="1" stroke-linecap="square" stroke-linejoin="round"><rect x="0" y="0" width="760" height="210" style="fill: #ffffff"></rect><path stroke="#969696" fill="#969696" filter="url(#shadowBlur)" d="M497.0 65.0 L735.0 65.0 L735.0 119.0 L497.0 119.0 z"></path><path stroke="#969696" fill="#969696" filter="url(#shadowBlur)" d="M257.0 65.0 L493.0 65.0 L493.0 119.0 L257.0 119.0 z"></path><path stroke="#969696" fill="#969696" filter="url(#shadowBlur)" d="M25.0 65.0 L253.0 65.0 L253.0 119.0 L25.0 119.0 z"></path><path stroke="#969696" fill="#969696" filter="url(#shadowBlur)" d="M497.0 35.0 L735.0 35.0 L735.0 61.0 L497.0 61.0 z"></path><path stroke="#969696" fill="#969696" filter="url(#shadowBlur)" d="M257.0 35.0 L493.0 35.0 L493.0 61.0 L257.0 61.0 z"></path><path stroke="#969696" fill="#969696" filter="url(#shadowBlur)" d="M25.0 35.0 L253.0 35.0 L253.0 61.0 L25.0 61.0 z"></path><path stroke="#969696" fill="#969696" filter="url(#shadowBlur)" d="M45.0 154.0 Q45.0 147.0 50.0 147.0 L90.0 147.0 Q95.0 147.0 95.0 154.0 L95.0 168.0 L95.0 168.0 Q95.0 175.0 90.0 175.0 L50.0 175.0 L50.0 175.0 Q45.0 175.0 45.0 168.0 L45.0 154.0 z"></path><path stroke="#000000" stroke-width="1.0" stroke-linecap="round" stroke-linejoin="round" fill="white" d="M497.0 65.0 L735.0 65.0 L735.0 119.0 L497.0 119.0 z"></path><path stroke="#000000" stroke-width="1.0" stroke-linecap="round" stroke-linejoin="round" fill="white" d="M257.0 65.0 L493.0 65.0 L493.0 119.0 L257.0 119.0 z"></path><path stroke="#000000" stroke-width="1.0" stroke-linecap="round" stroke-linejoin="round" fill="white" d="M25.0 65.0 L253.0 65.0 L253.0 119.0 L25.0 119.0 z"></path><path stroke="#000000" stroke-width="1.0" stroke-linecap="round" stroke-linejoin="round" fill="#ccffff" d="M497.0 35.0 L735.0 35.0 L735.0 61.0 L497.0 61.0 z"></path><path stroke="#000000" stroke-width="1.0" stroke-linecap="round" stroke-linejoin="round" fill="#ccffff" d="M257.0 35.0 L493.0 35.0 L493.0 61.0 L257.0 61.0 z"></path><path stroke="#000000" stroke-width="1.0" stroke-linecap="round" stroke-linejoin="round" fill="#ccffff" d="M25.0 35.0 L253.0 35.0 L253.0 61.0 L25.0 61.0 z"></path><path stroke="#000000" stroke-width="1.0" stroke-linecap="round" stroke-linejoin="round" fill="#ccffff" d="M45.0 154.0 Q45.0 147.0 50.0 147.0 L90.0 147.0 Q95.0 147.0 95.0 154.0 L95.0 168.0 L95.0 168.0 Q95.0 175.0 90.0 175.0 L50.0 175.0 L50.0 175.0 Q45.0 175.0 45.0 168.0 L45.0 154.0 z"></path><text x="114" y="55" font-family="sans-serif" font-size="16" stroke="none" fill="#000000"><![CDATA["title"]]></text><text x="337" y="55" font-family="sans-serif" font-size="16" stroke="none" fill="#000000"><![CDATA["author"]]></text><text x="586" y="55" font-family="sans-serif" font-size="16" stroke="none" fill="#000000"><![CDATA["year"]]></text><text x="58" y="97" font-family="sans-serif" font-size="16" stroke="none" fill="#000000"><![CDATA["Last Chance to See"]]></text><text x="277" y="97" font-family="sans-serif" font-size="16" stroke="none" fill="#000000"><![CDATA["Doublas Adams"]]></text><text x="512" y="97" font-family="sans-serif" font-size="16" stroke="none" fill="#000000"><![CDATA[1990]]></text><text x="112" y="167" font-family="sans-serif" font-size="16" stroke="none" fill="#000000"><![CDATA[key]]></text></g></svg>