<?xml version="1.0" encoding="us-ascii" standalone="no"?><svg xmlns="http://www.w3.org/2000/svg" xmlns:xlink="http://www.w3.org/1999/xlink" contentStyleType="text/css" height="357px" preserveAspectRatio="none" style="width:945px;height:357px;background:#FFFFFF;" version="1.1" viewBox="0 0 945 357" width="945px" zoomAndPan="magnify"><defs/><g><text fill="#000000" font-family="sans-serif" font-size="14" font-weight="bold" lengthAdjust="spacing" textLength="131" x="400" y="22.9951">Local Repository</text><!--cluster gitlocal--><g id="cluster_gitlocal"><path d="M8.5,43.2969 L70.5,43.2969 A3.75,3.75 0 0 1 73,45.7969 L80,65.5938 L731.5,65.5938 A2.5,2.5 0 0 1 734,68.0938 L734,347.7969 A2.5,2.5 0 0 1 731.5,350.2969 L8.5,350.2969 A2.5,2.5 0 0 1 6,347.7969 L6,45.7969 A2.5,2.5 0 0 1 8.5,43.2969 " fill="none" style="stroke:#000000;stroke-width:1.5;"/><line style="stroke:#000000;stroke-width:1.5;" x1="6" x2="80" y1="65.5938" y2="65.5938"/><text fill="#000000" font-family="sans-serif" font-size="14" font-weight="bold" lengthAdjust="spacing" textLength="61" x="10" y="58.292">git local</text></g><!--cluster objectdb--><g id="cluster_objectdb"><rect fill="none" height="221" rx="2.5" ry="2.5" style="stroke:#181818;stroke-width:1.0;" width="189" x="274" y="104.2969"/><path d="M358,104.2969 L358,113.5938 L348,123.5938 L274,123.5938 " fill="none" style="stroke:#181818;stroke-width:1.0;"/><text fill="#000000" font-family="sans-serif" font-size="14" font-weight="bold" lengthAdjust="spacing" textLength="74" x="277" y="118.292">object db</text></g><!--cluster index--><g id="cluster_index"><rect fill="none" height="240" rx="2.5" ry="2.5" style="stroke:#181818;stroke-width:1.0;" width="219" x="491" y="86.2969"/><path d="M544,86.2969 L544,95.5938 L534,105.5938 L491,105.5938 " fill="none" style="stroke:#181818;stroke-width:1.0;"/><text fill="#000000" font-family="sans-serif" font-size="14" font-weight="bold" lengthAdjust="spacing" textLength="43" x="494" y="100.292">index</text></g><!--cluster files--><g id="cluster_files"><path d="M760.5,65.2969 L794.5,65.2969 A3.75,3.75 0 0 1 797,67.7969 L804,87.5938 L935.5,87.5938 A2.5,2.5 0 0 1 938,90.0938 L938,259.7969 A2.5,2.5 0 0 1 935.5,262.2969 L760.5,262.2969 A2.5,2.5 0 0 1 758,259.7969 L758,67.7969 A2.5,2.5 0 0 1 760.5,65.2969 " fill="none" style="stroke:#000000;stroke-width:1.5;"/><line style="stroke:#000000;stroke-width:1.5;" x1="758" x2="804" y1="87.5938" y2="87.5938"/><text fill="#000000" font-family="sans-serif" font-size="14" font-weight="bold" lengthAdjust="spacing" textLength="33" x="762" y="80.292">files</text></g><!--entity head--><g id="elem_head"><rect fill="#F1F1F1" height="38.5938" rx="2.5" ry="2.5" style="stroke:#181818;stroke-width:0.5;" width="62" x="22" y="153.9969"/><text fill="#000000" font-family="sans-serif" font-size="14" font-style="italic" lengthAdjust="spacing" textLength="36" x="35" y="169.992">&#171;ref&#187;</text><text fill="#000000" font-family="sans-serif" font-size="14" font-weight="bold" lengthAdjust="spacing" textLength="42" x="32" y="186.2889">HEAD</text></g><!--entity master--><g id="elem_master"><rect fill="#F1F1F1" height="38.5938" rx="2.5" ry="2.5" style="stroke:#181818;stroke-width:0.5;" width="86" x="144" y="153.9969"/><text fill="#000000" font-family="sans-serif" font-size="14" font-style="italic" lengthAdjust="spacing" textLength="66" x="154" y="169.992">&#171;branch&#187;</text><text fill="#000000" font-family="sans-serif" font-size="14" font-weight="bold" lengthAdjust="spacing" textLength="55" x="159.5" y="186.2889">master</text></g><g id="elem_commits"><rect fill="#F1F1F1" height="162.375" style="stroke:#181818;stroke-width:0.5;" width="141" x="298" y="143.2969"/><text fill="#000000" font-family="sans-serif" font-size="14" font-weight="bold" lengthAdjust="spacing" textLength="66" x="335.5" y="158.292">commits</text><line style="stroke:#181818;stroke-width:1.0;" x1="298" x2="439" y1="163.5938" y2="163.5938"/><text fill="#000000" font-family="sans-serif" font-size="14" lengthAdjust="spacing" textLength="62" x="303.5" y="178.5889">c331b4d</text><text fill="#000000" font-family="sans-serif" font-size="14" lengthAdjust="spacing" textLength="50" x="376" y="178.5889">gitign...</text><line style="stroke:#181818;stroke-width:1.0;" x1="371" x2="371" y1="163.5938" y2="183.8906"/><line style="stroke:#181818;stroke-width:1.0;" x1="298" x2="439" y1="183.8906" y2="183.8906"/><text fill="#000000" font-family="sans-serif" font-size="14" lengthAdjust="spacing" textLength="62" x="303.5" y="198.8857">6a338d8</text><text fill="#000000" font-family="sans-serif" font-size="14" lengthAdjust="spacing" textLength="56" x="376" y="198.8857">format...</text><line style="stroke:#181818;stroke-width:1.0;" x1="371" x2="371" y1="183.8906" y2="204.1875"/><line style="stroke:#181818;stroke-width:1.0;" x1="298" x2="439" y1="204.1875" y2="204.1875"/><text fill="#000000" font-family="sans-serif" font-size="14" lengthAdjust="spacing" textLength="60" x="304.5" y="219.1826">02c7a7a</text><text fill="#000000" font-family="sans-serif" font-size="14" lengthAdjust="spacing" textLength="55" x="376" y="219.1826">minor ...</text><line style="stroke:#181818;stroke-width:1.0;" x1="371" x2="371" y1="204.1875" y2="224.4844"/><line style="stroke:#181818;stroke-width:1.0;" x1="298" x2="439" y1="224.4844" y2="224.4844"/><text fill="#000000" font-family="sans-serif" font-size="14" lengthAdjust="spacing" textLength="63" x="303" y="239.4795">382421e</text><text fill="#000000" font-family="sans-serif" font-size="14" lengthAdjust="spacing" textLength="48" x="376" y="239.4795">finish...</text><line style="stroke:#181818;stroke-width:1.0;" x1="371" x2="371" y1="224.4844" y2="244.7813"/><line style="stroke:#181818;stroke-width:1.0;" x1="298" x2="439" y1="244.7813" y2="244.7813"/><text fill="#000000" font-family="sans-serif" font-size="14" lengthAdjust="spacing" textLength="57" x="306" y="259.7764">fa69673</text><text fill="#000000" font-family="sans-serif" font-size="14" lengthAdjust="spacing" textLength="53" x="376" y="259.7764">clean ...</text><line style="stroke:#181818;stroke-width:1.0;" x1="371" x2="371" y1="244.7813" y2="265.0781"/><line style="stroke:#181818;stroke-width:1.0;" x1="298" x2="439" y1="265.0781" y2="265.0781"/><text fill="#000000" font-family="sans-serif" font-size="14" lengthAdjust="spacing" textLength="63" x="303" y="280.0732">92241db</text><text fill="#000000" font-family="sans-serif" font-size="14" lengthAdjust="spacing" textLength="57" x="376" y="280.0732">reorga...</text><line style="stroke:#181818;stroke-width:1.0;" x1="371" x2="371" y1="265.0781" y2="285.375"/><line style="stroke:#181818;stroke-width:1.0;" x1="298" x2="439" y1="285.375" y2="285.375"/><text fill="#000000" font-family="sans-serif" font-size="14" lengthAdjust="spacing" textLength="57" x="306" y="300.3701">fb090a5</text><text fill="#000000" font-family="sans-serif" font-size="14" lengthAdjust="spacing" textLength="58" x="376" y="300.3701">add py...</text><line style="stroke:#181818;stroke-width:1.0;" x1="371" x2="371" y1="285.375" y2="305.6719"/></g><g id="elem_tree"><rect fill="#F1F1F1" height="95.1563" style="stroke:#181818;stroke-width:0.5;" width="171" x="515" y="125.7969"/><text fill="#000000" font-family="sans-serif" font-size="12" font-style="italic" lengthAdjust="spacing" textLength="40" x="580.5" y="136.9355">&#171;tree&#187;</text><text fill="#000000" font-family="sans-serif" font-size="14" font-weight="bold" lengthAdjust="spacing" textLength="69" x="566" y="154.7607">c331b4d</text><line style="stroke:#181818;stroke-width:1.0;" x1="515" x2="686" y1="160.0625" y2="160.0625"/><text fill="#000000" font-family="sans-serif" font-size="14" lengthAdjust="spacing" textLength="71" x="520.5" y="175.0576">598bec57</text><text fill="#000000" font-family="sans-serif" font-size="14" lengthAdjust="spacing" textLength="38" x="602" y="175.0576">.replit</text><line style="stroke:#181818;stroke-width:1.0;" x1="597" x2="597" y1="160.0625" y2="180.3594"/><line style="stroke:#181818;stroke-width:1.0;" x1="515" x2="686" y1="180.3594" y2="180.3594"/><text fill="#000000" font-family="sans-serif" font-size="14" lengthAdjust="spacing" textLength="72" x="520" y="195.3545">73bb444b</text><text fill="#000000" font-family="sans-serif" font-size="14" lengthAdjust="spacing" textLength="59" x="602" y="195.3545">pypet.py</text><line style="stroke:#181818;stroke-width:1.0;" x1="597" x2="597" y1="180.3594" y2="200.6563"/><line style="stroke:#181818;stroke-width:1.0;" x1="515" x2="686" y1="200.6563" y2="200.6563"/><text fill="#000000" font-family="sans-serif" font-size="14" lengthAdjust="spacing" textLength="66" x="523" y="215.6514">26c39fd5</text><text fill="#000000" font-family="sans-serif" font-size="14" lengthAdjust="spacing" textLength="79" x="602" y="215.6514">readme.md</text><line style="stroke:#181818;stroke-width:1.0;" x1="597" x2="597" y1="200.6563" y2="220.9531"/></g><!--class staging--><g id="elem_staging"><rect codeLine="39" fill="#F1F1F1" height="50.5938" id="staging" rx="2.5" ry="2.5" style="stroke:#181818;stroke-width:0.5;" width="108" x="546.5" y="259.9969"/><text fill="#000000" font-family="sans-serif" font-size="14" font-weight="bold" lengthAdjust="spacing" textLength="58" x="549.5" y="277.992">staging</text><rect fill="#FFFFFF" height="15.9688" style="stroke:#181818;stroke-width:1.0;stroke-dasharray:2.0,2.0;" width="42" x="615.5" y="256.9969"/><text fill="#000000" font-family="sans-serif" font-size="12" font-style="italic" lengthAdjust="spacing" textLength="40" x="616.5" y="269.1355">added</text><line style="stroke:#181818;stroke-width:0.5;" x1="547.5" x2="653.5" y1="286.2938" y2="286.2938"/><text fill="#000000" font-family="sans-serif" font-size="14" lengthAdjust="spacing" textLength="69" x="552.5" y="303.2889">+LICENSE</text></g><!--class working--><g id="elem_working"><rect codeLine="46" fill="#F1F1F1" height="146.0469" id="working" rx="2.5" ry="2.5" style="stroke:#181818;stroke-width:0.5;" width="148" x="774" y="100.2769"/><text fill="#000000" font-family="sans-serif" font-size="12" font-style="italic" lengthAdjust="spacing" textLength="70" x="779" y="116.4155">&#171;contents&#187;</text><text fill="#000000" font-family="sans-serif" font-size="14" font-weight="bold" lengthAdjust="spacing" textLength="64" x="787" y="132.2407">working</text><text fill="#000000" font-family="sans-serif" font-size="14" lengthAdjust="spacing" textLength="4" x="795.5" y="148.5376">&#160;</text><text fill="#000000" font-family="sans-serif" font-size="14" font-weight="bold" lengthAdjust="spacing" textLength="33" x="799.5" y="148.5376">tree</text><rect fill="#FFFFFF" height="15.9688" style="stroke:#181818;stroke-width:1.0;stroke-dasharray:2.0,2.0;" width="66" x="859" y="97.2769"/><text fill="#000000" font-family="sans-serif" font-size="12" font-style="italic" lengthAdjust="spacing" textLength="64" x="860" y="109.4155">+changes</text><line style="stroke:#181818;stroke-width:0.5;" x1="775" x2="921" y1="156.8394" y2="156.8394"/><text fill="#000000" font-family="sans-serif" font-size="14" lengthAdjust="spacing" textLength="65" x="780" y="173.8345">.gitignore</text><text fill="#000000" font-family="sans-serif" font-size="14" lengthAdjust="spacing" textLength="26" x="780" y="190.1314">bin/</text><text fill="#000000" font-family="sans-serif" font-size="14" lengthAdjust="spacing" textLength="57" x="780" y="206.4282">LICENSE</text><text fill="#000000" font-family="sans-serif" font-size="14" lengthAdjust="spacing" textLength="59" x="780" y="222.7251">pypet.py</text><text fill="#000000" font-family="sans-serif" font-size="14" lengthAdjust="spacing" textLength="79" x="780" y="239.022">readme.md</text></g><!--link head to master--><g id="link_head_master"><path codeLine="57" d="M84.28,173.2969 C101.87,173.2969 118.29,173.2969 137.6,173.2969 " fill="none" id="head-to-master" style="stroke:#181818;stroke-width:1.0;"/><polygon fill="#181818" points="143.6,173.2969,134.6,169.2969,138.6,173.2969,134.6,177.2969,143.6,173.2969" style="stroke:#181818;stroke-width:1.0;"/></g><!--link master to commits--><g id="link_master_commits"><path codeLine="58" d="M230.25,173.2969 C250.32,173.2969 262.65,173.2969 284.5,173.2969 " fill="none" id="master-to-commits" style="stroke:#181818;stroke-width:1.0;"/><polygon fill="none" points="296.5,173.2969,290.5,169.2969,284.5,173.2969,290.5,177.2969,296.5,173.2969" style="stroke:#181818;stroke-width:1.0;"/></g><!--link commits to tree--><g id="link_commits_tree"><path codeLine="59" d="M452.5,173.2969 C474.03,173.2969 467.2,173.2969 489.02,173.2969 " fill="none" id="commits-tree" style="stroke:#181818;stroke-width:1.0;"/><polygon fill="none" points="440.5,173.2969,446.5,177.2969,452.5,173.2969,446.5,169.2969,440.5,173.2969" style="stroke:#181818;stroke-width:1.0;"/><polygon fill="#FFFFFF" points="507.02,173.2969,488.02,180.2969,488.02,166.2969,507.02,173.2969" style="stroke:#181818;stroke-width:1.0;"/><line style="stroke:#181818;stroke-width:2.0;" x1="484.22" x2="484.22" y1="180.2969" y2="166.2969"/></g><!--link staging to tree--><!--link tree to working--><!--SRC=[NLFRRjim37tNLt1v2U0XNXBdMcG1YYx01gHhqM5Fsp3G5crhjIL3Kf5cQ_zzagtSgWTRr3cKo4Eo3zTmNw6qts-tm0KM6cimfTe9MO0j2J9LDqgIj0PK3WYLoh02JOqomYgzZrcVCQmgjQl5itDY5UKMh08jYjAwApLbLYZ9pAEG3VhhimgDGMkrI9yiYKn98_uI3Cye3HPqYxeG4aP3LWfEdHTaGcSLTITKDtOFDTKfQSEO5ROYsBRnFHpZO-oTiQYjUKhXOND_ztjxTtEzPInN5ISDlKBOBgSUe05dTGd-OmmWGysX5qMVDzUVegW7gvMcVBtsn9AGdp5gD9PqnqarogpiQDsvlojtQP6dglIFKmHuwjcEqjayTKz2ksfiFCy9Nmjh0YjOHv9VMPACqWc7ZsiVjoXa7CTdy0oJPC4N7iwLhj5UmiDnDiSvUhWMKccuX9F5U38UKUijf33b9PpZR3cR9nvszK3vndiv7az6BYS7QrAwm3VUwN0vnAc7aNDezYVubNNVSyc4vFGSX6ZtGOQ3KfqEWM0raQk2_xaQ7FIQBXSfPTEvVp9stLi96v1vagQJoQIDjTatPEDc7w3nB4kMEPzsQI2lAQxvAJu8FUb2S2tcUhK88GHhvN8ZVehX_VRBpURhjmqxvFdANa-D64MvgEXGxtRVUXxV0DWf_TY-ybD25FaC0pi0g_TPYR8WitO2kB6oVcoF8iHTaoXDhPaA-Q7Td4Tr8S0fPHTctytM5N2rawpFbTksyysO7mGOS3LO7vgz-xLdwj2tLrUXIEpj0IXFV7bPjuLZRVK65Vrm4yv9_XeSn0m8LoSaPEqcd2I_dE__]--></g></svg>