<?xml version="1.0" encoding="UTF-8"?><svg xmlns="http://www.w3.org/2000/svg" width="480" height="322" version="1.0" shape-rendering="geometricPrecision"><defs><filter id="shadowBlur" x="0" y="0" width="200%" height="200%"><feOffset in="SourceGraphic" dx="3.0003002" dy="3.0003002" result="offOut"></feOffset><feGaussianBlur in="offOut" stdDeviation="3"></feGaussianBlur></filter></defs><g stroke-width="1" stroke-linecap="square" stroke-linejoin="round"><rect x="0" y="0" width="480" height="322" style="fill: #ffffff"></rect><path stroke="#969696" fill="#969696" filter="url(#shadowBlur)" d="M25.0 35.0 L435.0 35.0 L435.0 231.0 L25.0 231.0 z"></path><path stroke="#969696" fill="#969696" filter="url(#shadowBlur)" d="M67.0 93.0 L393.0 93.0 L393.0 201.0 L67.0 201.0 z"></path><path stroke="#969696" fill="#969696" filter="url(#shadowBlur)" d="M67.0 93.0 L173.0 93.0 L173.0 145.0 L67.0 145.0 z"></path><path stroke="#969696" fill="#969696" filter="url(#shadowBlur)" d="M177.0 93.0 L283.0 93.0 L283.0 145.0 L177.0 145.0 z"></path><path stroke="#969696" fill="#969696" filter="url(#shadowBlur)" d="M287.0 93.0 L393.0 93.0 L393.0 145.0 L287.0 145.0 z"></path><path stroke="#969696" fill="#969696" filter="url(#shadowBlur)" d="M67.0 149.0 L173.0 149.0 L173.0 173.0 L67.0 173.0 z"></path><path stroke="#969696" fill="#969696" filter="url(#shadowBlur)" d="M177.0 149.0 L283.0 149.0 L283.0 173.0 L177.0 173.0 z"></path><path stroke="#969696" fill="#969696" filter="url(#shadowBlur)" d="M287.0 149.0 L393.0 149.0 L393.0 173.0 L287.0 173.0 z"></path><path stroke="#969696" fill="#969696" filter="url(#shadowBlur)" d="M67.0 177.0 L173.0 177.0 L173.0 201.0 L67.0 201.0 z"></path><path stroke="#969696" fill="#969696" filter="url(#shadowBlur)" d="M177.0 177.0 L283.0 177.0 L283.0 201.0 L177.0 201.0 z"></path><path stroke="#969696" fill="#969696" filter="url(#shadowBlur)" d="M287.0 177.0 L393.0 177.0 L393.0 201.0 L287.0 201.0 z"></path><path stroke="#969696" fill="#969696" filter="url(#shadowBlur)" d="M45.0 266.0 Q45.0 259.0 50.0 259.0 L90.0 259.0 Q95.0 259.0 95.0 266.0 L95.0 280.0 L95.0 280.0 Q95.0 287.0 90.0 287.0 L50.0 287.0 L50.0 287.0 Q45.0 287.0 45.0 280.0 L45.0 266.0 z"></path><path stroke="#969696" fill="#969696" filter="url(#shadowBlur)" d="M255.0 266.0 Q255.0 259.0 260.0 259.0 L300.0 259.0 Q305.0 259.0 305.0 266.0 L305.0 280.0 L305.0 280.0 Q305.0 287.0 300.0 287.0 L260.0 287.0 L260.0 287.0 Q255.0 287.0 255.0 280.0 L255.0 266.0 z"></path><path stroke="#000000" stroke-width="1.0" stroke-linecap="round" stroke-linejoin="round" fill="white" d="M25.0 35.0 L435.0 35.0 L435.0 231.0 L25.0 231.0 z"></path><path stroke="#000000" stroke-width="1.0" stroke-linecap="round" stroke-linejoin="round" fill="white" d="M67.0 93.0 L393.0 93.0 L393.0 201.0 L67.0 201.0 z"></path><path stroke="#000000" stroke-width="1.0" stroke-linecap="round" stroke-linejoin="round" fill="white" d="M67.0 93.0 L173.0 93.0 L173.0 145.0 L67.0 145.0 z"></path><path stroke="#000000" stroke-width="1.0" stroke-linecap="round" stroke-linejoin="round" fill="white" d="M177.0 93.0 L283.0 93.0 L283.0 145.0 L177.0 145.0 z"></path><path stroke="#000000" stroke-width="1.0" stroke-linecap="round" stroke-linejoin="round" fill="white" d="M287.0 93.0 L393.0 93.0 L393.0 145.0 L287.0 145.0 z"></path><path stroke="#000000" stroke-width="1.0" stroke-linecap="round" stroke-linejoin="round" fill="#ccffff" d="M67.0 149.0 L173.0 149.0 L173.0 173.0 L67.0 173.0 z"></path><path stroke="#000000" stroke-width="1.0" stroke-linecap="round" stroke-linejoin="round" fill="#ccffff" d="M177.0 149.0 L283.0 149.0 L283.0 173.0 L177.0 173.0 z"></path><path stroke="#000000" stroke-width="1.0" stroke-linecap="round" stroke-linejoin="round" fill="#ccffff" d="M287.0 149.0 L393.0 149.0 L393.0 173.0 L287.0 173.0 z"></path><path stroke="#000000" stroke-width="1.0" stroke-linecap="round" stroke-linejoin="round" fill="#ccccff" d="M67.0 177.0 L173.0 177.0 L173.0 201.0 L67.0 201.0 z"></path><path stroke="#000000" stroke-width="1.0" stroke-linecap="round" stroke-linejoin="round" fill="#ccccff" d="M177.0 177.0 L283.0 177.0 L283.0 201.0 L177.0 201.0 z"></path><path stroke="#000000" stroke-width="1.0" stroke-linecap="round" stroke-linejoin="round" fill="#ccccff" d="M287.0 177.0 L393.0 177.0 L393.0 201.0 L287.0 201.0 z"></path><path stroke="#000000" stroke-width="1.0" stroke-linecap="round" stroke-linejoin="round" fill="#ccffff" d="M45.0 266.0 Q45.0 259.0 50.0 259.0 L90.0 259.0 Q95.0 259.0 95.0 266.0 L95.0 280.0 L95.0 280.0 Q95.0 287.0 90.0 287.0 L50.0 287.0 L50.0 287.0 Q45.0 287.0 45.0 280.0 L45.0 266.0 z"></path><path stroke="#000000" stroke-width="1.0" stroke-linecap="round" stroke-linejoin="round" fill="#ccccff" d="M255.0 266.0 Q255.0 259.0 260.0 259.0 L300.0 259.0 Q305.0 259.0 305.0 266.0 L305.0 280.0 L305.0 280.0 Q305.0 287.0 300.0 287.0 L260.0 287.0 L260.0 287.0 Q255.0 287.0 255.0 280.0 L255.0 266.0 z"></path><path stroke="#000000" stroke-width="1.0" stroke-linecap="round" stroke-linejoin="round" fill="none" d="M100.0 189.0 L109.0 189.0 "></path><path stroke="#000000" stroke-width="1.0" stroke-linecap="round" stroke-linejoin="round" fill="none" d="M210.0 189.0 L219.0 189.0 "></path><path stroke="#000000" stroke-width="1.0" stroke-linecap="round" stroke-linejoin="round" fill="none" d="M320.0 189.0 L329.0 189.0 "></path><text x="62" y="68" font-family="sans-serif" font-size="15" stroke="none" fill="#000000"><![CDATA[cities (list)]]></text><text x="80" y="124" font-family="sans-serif" font-size="15" stroke="none" fill="#000000"><![CDATA[London]]></text><text x="195" y="124" font-family="sans-serif" font-size="15" stroke="none" fill="#000000"><![CDATA[Paris]]></text><text x="307" y="124" font-family="sans-serif" font-size="15" stroke="none" fill="#000000"><![CDATA[Berlin]]></text><text x="113" y="166" font-family="sans-serif" font-size="15" stroke="none" fill="#000000"><![CDATA[0 ]]></text><text x="223" y="166" font-family="sans-serif" font-size="15" stroke="none" fill="#000000"><![CDATA[1 ]]></text><text x="333" y="166" font-family="sans-serif" font-size="15" stroke="none" fill="#000000"><![CDATA[2 ]]></text><text x="113" y="194" font-family="sans-serif" font-size="15" stroke="none" fill="#000000"><![CDATA[3 ]]></text><text x="223" y="194" font-family="sans-serif" font-size="15" stroke="none" fill="#000000"><![CDATA[2 ]]></text><text x="333" y="194" font-family="sans-serif" font-size="15" stroke="none" fill="#000000"><![CDATA[1 ]]></text><text x="114" y="278" font-family="sans-serif" font-size="15" stroke="none" fill="#000000"><![CDATA[index number]]></text><text x="330" y="278" font-family="sans-serif" font-size="15" stroke="none" fill="#000000"><![CDATA[negative index]]></text></g></svg>