<?xml version="1.0" encoding="UTF-8" standalone="no"?><svg xmlns="http://www.w3.org/2000/svg" xmlns:xlink="http://www.w3.org/1999/xlink" contentStyleType="text/css" height="1254px" preserveAspectRatio="none" style="width:677px;height:1254px;background:#FFFFFF;" version="1.1" viewBox="0 0 677 1254" width="677px" zoomAndPan="magnify"><defs/><g><rect fill="#F5FFFA" height="1242.375" style="stroke:#181818;stroke-width:0.5;" width="372" x="35" y="6"/><text fill="#000000" font-family="sans-serif" font-size="13" font-weight="bold" lengthAdjust="spacing" textLength="38" x="199.5" y="18.0669">Local</text><rect fill="#F8F8FF" height="1242.375" style="stroke:#181818;stroke-width:0.5;" width="152" x="409" y="6"/><text fill="#000000" font-family="sans-serif" font-size="13" font-weight="bold" lengthAdjust="spacing" textLength="57" x="454" y="18.0669">Remote</text><rect fill="#ADD8E6" height="14" style="stroke:#800080;stroke-width:1.0;" width="10" x="204.5" y="192.9922"/><rect fill="#ADD8E6" height="23.5664" style="stroke:#800080;stroke-width:1.0;" width="10" x="204.5" y="466.2227"/><rect fill="#ADD8E6" height="14" style="stroke:#800080;stroke-width:1.0;" width="10" x="282" y="178.9922"/><rect fill="#ADD8E6" height="23.5664" style="stroke:#800080;stroke-width:1.0;" width="10" x="282" y="489.7891"/><rect fill="#ADD8E6" height="33.1328" style="stroke:#800080;stroke-width:1.0;" width="10" x="282" y="647.7539"/><rect fill="#ADD8E6" height="23.5664" style="stroke:#800080;stroke-width:1.0;" width="10" x="282" y="954.1172"/><rect fill="#ADD8E6" height="14" style="stroke:#800080;stroke-width:1.0;" width="10" x="359" y="164.9922"/><rect fill="#ADD8E6" height="23.5664" style="stroke:#800080;stroke-width:1.0;" width="10" x="359" y="930.5508"/><rect fill="#ADD8E6" height="33.1328" style="stroke:#800080;stroke-width:1.0;" width="10" x="447" y="1112.082"/><line style="stroke:#800080;stroke-width:0.5;stroke-dasharray:5.0,5.0;" x1="99" x2="99" y1="72.7266" y2="1197.7813"/><line style="stroke:#800080;stroke-width:0.5;stroke-dasharray:5.0,5.0;" x1="209" x2="209" y1="72.7266" y2="1197.7813"/><line style="stroke:#800080;stroke-width:0.5;stroke-dasharray:5.0,5.0;" x1="287" x2="287" y1="72.7266" y2="1197.7813"/><line style="stroke:#800080;stroke-width:0.5;stroke-dasharray:5.0,5.0;" x1="364" x2="364" y1="72.7266" y2="1197.7813"/><line style="stroke:#800080;stroke-width:0.5;stroke-dasharray:5.0,5.0;" x1="452" x2="452" y1="72.7266" y2="1197.7813"/><line style="stroke:#800080;stroke-width:0.5;stroke-dasharray:5.0,5.0;" x1="529" x2="529" y1="72.7266" y2="1197.7813"/><rect fill="#E2E2F0" height="46.5938" rx="2.5" ry="2.5" style="stroke:#181818;stroke-width:0.5;" width="121" x="39" y="25.1328"/><text fill="#000000" font-family="sans-serif" font-size="14" font-style="italic" lengthAdjust="spacing" textLength="44" x="77.5" y="45.1279">«files»</text><text fill="#000000" font-family="sans-serif" font-size="14" font-weight="bold" lengthAdjust="spacing" textLength="107" x="46" y="61.4248">Working Tree</text><rect fill="#E2E2F0" height="46.5938" rx="2.5" ry="2.5" style="stroke:#181818;stroke-width:0.5;" width="121" x="39" y="1196.7813"/><text fill="#000000" font-family="sans-serif" font-size="14" font-style="italic" lengthAdjust="spacing" textLength="44" x="77.5" y="1216.7764">«files»</text><text fill="#000000" font-family="sans-serif" font-size="14" font-weight="bold" lengthAdjust="spacing" textLength="107" x="46" y="1233.0732">Working Tree</text><rect fill="#E2E2F0" height="46.5938" rx="2.5" ry="2.5" style="stroke:#181818;stroke-width:0.5;" width="79" x="170" y="25.1328"/><text fill="#000000" font-family="sans-serif" font-size="14" font-style="italic" lengthAdjust="spacing" textLength="65" x="177" y="45.1279">«staged»</text><text fill="#000000" font-family="sans-serif" font-size="14" font-weight="bold" lengthAdjust="spacing" textLength="43" x="188" y="61.4248">Index</text><rect fill="#E2E2F0" height="46.5938" rx="2.5" ry="2.5" style="stroke:#181818;stroke-width:0.5;" width="79" x="170" y="1196.7813"/><text fill="#000000" font-family="sans-serif" font-size="14" font-style="italic" lengthAdjust="spacing" textLength="65" x="177" y="1216.7764">«staged»</text><text fill="#000000" font-family="sans-serif" font-size="14" font-weight="bold" lengthAdjust="spacing" textLength="43" x="188" y="1233.0732">Index</text><rect fill="#E2E2F0" height="46.5938" rx="2.5" ry="2.5" style="stroke:#181818;stroke-width:0.5;" width="56" x="259" y="25.1328"/><text fill="#000000" font-family="sans-serif" font-size="14" font-style="italic" lengthAdjust="spacing" textLength="36" x="269" y="45.1279">«ref»</text><text fill="#000000" font-family="sans-serif" font-size="14" font-weight="bold" lengthAdjust="spacing" textLength="42" x="266" y="61.4248">HEAD</text><rect fill="#E2E2F0" height="46.5938" rx="2.5" ry="2.5" style="stroke:#181818;stroke-width:0.5;" width="56" x="259" y="1196.7813"/><text fill="#000000" font-family="sans-serif" font-size="14" font-style="italic" lengthAdjust="spacing" textLength="36" x="269" y="1216.7764">«ref»</text><text fill="#000000" font-family="sans-serif" font-size="14" font-weight="bold" lengthAdjust="spacing" textLength="42" x="266" y="1233.0732">HEAD</text><rect fill="#E2E2F0" height="46.5938" rx="2.5" ry="2.5" style="stroke:#181818;stroke-width:0.5;" width="78" x="325" y="25.1328"/><text fill="#000000" font-family="sans-serif" font-size="14" font-style="italic" lengthAdjust="spacing" textLength="64" x="332" y="45.1279">«history»</text><text fill="#000000" font-family="sans-serif" font-size="14" font-weight="bold" lengthAdjust="spacing" textLength="21" x="353.5" y="61.4248">DB</text><rect fill="#E2E2F0" height="46.5938" rx="2.5" ry="2.5" style="stroke:#181818;stroke-width:0.5;" width="78" x="325" y="1196.7813"/><text fill="#000000" font-family="sans-serif" font-size="14" font-style="italic" lengthAdjust="spacing" textLength="64" x="332" y="1216.7764">«history»</text><text fill="#000000" font-family="sans-serif" font-size="14" font-weight="bold" lengthAdjust="spacing" textLength="21" x="353.5" y="1233.0732">DB</text><rect fill="#E2E2F0" height="46.5938" rx="2.5" ry="2.5" style="stroke:#181818;stroke-width:0.5;" width="78" x="413" y="25.1328"/><text fill="#000000" font-family="sans-serif" font-size="14" font-style="italic" lengthAdjust="spacing" textLength="64" x="420" y="45.1279">«history»</text><text fill="#000000" font-family="sans-serif" font-size="14" font-weight="bold" lengthAdjust="spacing" textLength="21" x="441.5" y="61.4248">DB</text><rect fill="#E2E2F0" height="46.5938" rx="2.5" ry="2.5" style="stroke:#181818;stroke-width:0.5;" width="78" x="413" y="1196.7813"/><text fill="#000000" font-family="sans-serif" font-size="14" font-style="italic" lengthAdjust="spacing" textLength="64" x="420" y="1216.7764">«history»</text><text fill="#000000" font-family="sans-serif" font-size="14" font-weight="bold" lengthAdjust="spacing" textLength="21" x="441.5" y="1233.0732">DB</text><rect fill="#E2E2F0" height="46.5938" rx="2.5" ry="2.5" style="stroke:#181818;stroke-width:0.5;" width="56" x="501" y="25.1328"/><text fill="#000000" font-family="sans-serif" font-size="14" font-style="italic" lengthAdjust="spacing" textLength="36" x="511" y="45.1279">«ref»</text><text fill="#000000" font-family="sans-serif" font-size="14" font-weight="bold" lengthAdjust="spacing" textLength="42" x="508" y="61.4248">HEAD</text><rect fill="#E2E2F0" height="46.5938" rx="2.5" ry="2.5" style="stroke:#181818;stroke-width:0.5;" width="56" x="501" y="1196.7813"/><text fill="#000000" font-family="sans-serif" font-size="14" font-style="italic" lengthAdjust="spacing" textLength="36" x="511" y="1216.7764">«ref»</text><text fill="#000000" font-family="sans-serif" font-size="14" font-weight="bold" lengthAdjust="spacing" textLength="42" x="508" y="1233.0732">HEAD</text><rect fill="#ADD8E6" height="14" style="stroke:#800080;stroke-width:1.0;" width="10" x="204.5" y="192.9922"/><rect fill="#ADD8E6" height="23.5664" style="stroke:#800080;stroke-width:1.0;" width="10" x="204.5" y="466.2227"/><rect fill="#ADD8E6" height="14" style="stroke:#800080;stroke-width:1.0;" width="10" x="282" y="178.9922"/><rect fill="#ADD8E6" height="23.5664" style="stroke:#800080;stroke-width:1.0;" width="10" x="282" y="489.7891"/><rect fill="#ADD8E6" height="33.1328" style="stroke:#800080;stroke-width:1.0;" width="10" x="282" y="647.7539"/><rect fill="#ADD8E6" height="23.5664" style="stroke:#800080;stroke-width:1.0;" width="10" x="282" y="954.1172"/><rect fill="#ADD8E6" height="14" style="stroke:#800080;stroke-width:1.0;" width="10" x="359" y="164.9922"/><rect fill="#ADD8E6" height="23.5664" style="stroke:#800080;stroke-width:1.0;" width="10" x="359" y="930.5508"/><rect fill="#ADD8E6" height="33.1328" style="stroke:#800080;stroke-width:1.0;" width="10" x="447" y="1112.082"/><rect fill="#EEEEEE" height="3" style="stroke:#EEEEEE;stroke-width:1.0;" width="670" x="0" y="103.293"/><line style="stroke:#191970;stroke-width:1.0;" x1="0" x2="670" y1="103.293" y2="103.293"/><line style="stroke:#191970;stroke-width:1.0;" x1="0" x2="670" y1="106.293" y2="106.293"/><rect fill="#EEEEEE" height="23.1328" style="stroke:#191970;stroke-width:2.0;" width="90" x="290" y="92.7266"/><text fill="#000000" font-family="monospace" font-size="13" lengthAdjust="spacing" textLength="72" x="296" y="108.7935">git clone</text><text fill="#000000" font-family="sans-serif" font-size="13" lengthAdjust="spacing" textLength="4" x="368" y="108.7935"> </text><rect fill="#FFFFFF" height="23" style="stroke:#181818;stroke-width:0.5;" width="513" x="57" y="130.8594"/><text fill="#000000" font-family="sans-serif" font-size="13" lengthAdjust="spacing" textLength="122" x="252.5" y="146.9263">download new repo</text><polygon fill="#800080" points="380,160.9922,370,164.9922,380,168.9922,376,164.9922" style="stroke:#800080;stroke-width:1.0;"/><line style="stroke:#800080;stroke-width:1.5;stroke-dasharray:2.0,2.0;" x1="374" x2="528" y1="164.9922" y2="164.9922"/><polygon fill="#800080" points="303,174.9922,293,178.9922,303,182.9922,299,178.9922" style="stroke:#800080;stroke-width:1.0;"/><line style="stroke:#800080;stroke-width:1.5;stroke-dasharray:2.0,2.0;" x1="297" x2="363" y1="178.9922" y2="178.9922"/><polygon fill="#800080" points="225.5,188.9922,215.5,192.9922,225.5,196.9922,221.5,192.9922" style="stroke:#800080;stroke-width:1.0;"/><line style="stroke:#800080;stroke-width:1.5;stroke-dasharray:2.0,2.0;" x1="219.5" x2="286" y1="192.9922" y2="192.9922"/><ellipse cx="99" cy="206.2422" fill="none" rx="4" ry="4" style="stroke:#800080;stroke-width:1.5;"/><polygon fill="#800080" points="116,202.9922,106,206.9922,116,210.9922,112,206.9922" style="stroke:#800080;stroke-width:1.0;"/><line style="stroke:#800080;stroke-width:1.5;stroke-dasharray:2.0,2.0;" x1="114" x2="208.5" y1="206.9922" y2="206.9922"/><rect fill="#EEEEEE" height="3" style="stroke:#EEEEEE;stroke-width:1.0;" width="670" x="0" y="260.5586"/><line style="stroke:#191970;stroke-width:1.0;" x1="0" x2="670" y1="260.5586" y2="260.5586"/><line style="stroke:#191970;stroke-width:1.0;" x1="0" x2="670" y1="263.5586" y2="263.5586"/><rect fill="#EEEEEE" height="23.1328" style="stroke:#191970;stroke-width:2.0;" width="74" x="298" y="249.9922"/><text fill="#000000" font-family="monospace" font-size="13" lengthAdjust="spacing" textLength="56" x="304" y="266.0591">git add</text><text fill="#000000" font-family="sans-serif" font-size="13" lengthAdjust="spacing" textLength="4" x="360" y="266.0591"> </text><rect fill="#FFFFFF" height="23" style="stroke:#181818;stroke-width:0.5;" width="513" x="57" y="288.125"/><text fill="#000000" font-family="sans-serif" font-size="13" lengthAdjust="spacing" textLength="137" x="245" y="304.1919">add changes to index</text><ellipse cx="209" cy="340.6406" fill="none" rx="4" ry="4" style="stroke:#800080;stroke-width:1.5;"/><polygon fill="#800080" points="192,337.3906,202,341.3906,192,345.3906,196,341.3906" style="stroke:#800080;stroke-width:1.0;"/><line style="stroke:#800080;stroke-width:1.5;stroke-dasharray:2.0,2.0;" x1="99.5" x2="198" y1="341.3906" y2="341.3906"/><polygon fill="#FFFFFF" points="16,321.2578,84,321.2578,94,332.2578,84,344.2578,16,344.2578,6,332.2578,16,321.2578" style="stroke:#181818;stroke-width:0.5;"/><text fill="#000000" font-family="sans-serif" font-size="13" lengthAdjust="spacing" textLength="64" x="18" y="337.3247">untracked</text><polygon fill="#FFFFFF" points="224,321.2578,272,321.2578,282,332.2578,272,344.2578,224,344.2578,214,332.2578,224,321.2578" style="stroke:#181818;stroke-width:0.5;"/><text fill="#000000" font-family="sans-serif" font-size="13" lengthAdjust="spacing" textLength="44" x="226" y="337.3247">staged</text><rect fill="#EEEEEE" height="3" style="stroke:#EEEEEE;stroke-width:1.0;" width="670" x="0" y="394.957"/><line style="stroke:#191970;stroke-width:1.0;" x1="0" x2="670" y1="394.957" y2="394.957"/><line style="stroke:#191970;stroke-width:1.0;" x1="0" x2="670" y1="397.957" y2="397.957"/><rect fill="#EEEEEE" height="23.1328" style="stroke:#191970;stroke-width:2.0;" width="122" x="274" y="384.3906"/><text fill="#000000" font-family="monospace" font-size="13" lengthAdjust="spacing" textLength="104" x="280" y="400.4575">git commit -a</text><text fill="#000000" font-family="sans-serif" font-size="13" lengthAdjust="spacing" textLength="4" x="384" y="400.4575"> </text><rect fill="#FFFFFF" height="23" style="stroke:#181818;stroke-width:0.5;" width="513" x="57" y="422.5234"/><text fill="#000000" font-family="sans-serif" font-size="13" lengthAdjust="spacing" textLength="142" x="242.5" y="438.5903">add and store commit</text><polygon fill="#800080" points="192.5,462.2227,202.5,466.2227,192.5,470.2227,196.5,466.2227" style="stroke:#800080;stroke-width:1.0;"/><line style="stroke:#800080;stroke-width:1.5;stroke-dasharray:2.0,2.0;" x1="99.5" x2="198.5" y1="466.2227" y2="466.2227"/><polygon fill="#FFFFFF" points="16,455.6563,84,455.6563,94,466.6563,84,478.6563,16,478.6563,6,466.6563,16,455.6563" style="stroke:#181818;stroke-width:0.5;"/><text fill="#000000" font-family="sans-serif" font-size="13" lengthAdjust="spacing" textLength="64" x="18" y="471.7231">untracked</text><polygon fill="#800080" points="270,485.7891,280,489.7891,270,493.7891,274,489.7891" style="stroke:#800080;stroke-width:1.0;"/><line style="stroke:#800080;stroke-width:1.5;stroke-dasharray:2.0,2.0;" x1="209.5" x2="276" y1="489.7891" y2="489.7891"/><ellipse cx="363.5" cy="512.6055" fill="none" rx="4" ry="4" style="stroke:#800080;stroke-width:1.5;"/><polygon fill="#800080" points="346.5,509.3555,356.5,513.3555,346.5,517.3555,350.5,513.3555" style="stroke:#800080;stroke-width:1.0;"/><line style="stroke:#800080;stroke-width:1.5;stroke-dasharray:2.0,2.0;" x1="287" x2="352.5" y1="513.3555" y2="513.3555"/><polygon fill="#FFFFFF" points="379,502.7891,453,502.7891,463,513.7891,453,525.7891,379,525.7891,369,513.7891,379,502.7891" style="stroke:#181818;stroke-width:0.5;"/><text fill="#000000" font-family="sans-serif" font-size="13" lengthAdjust="spacing" textLength="70" x="381" y="518.856">committed</text><rect fill="#EEEEEE" height="3" style="stroke:#EEEEEE;stroke-width:1.0;" width="670" x="0" y="576.4883"/><line style="stroke:#191970;stroke-width:1.0;" x1="0" x2="670" y1="576.4883" y2="576.4883"/><line style="stroke:#191970;stroke-width:1.0;" x1="0" x2="670" y1="579.4883" y2="579.4883"/><rect fill="#EEEEEE" height="23.1328" style="stroke:#191970;stroke-width:2.0;" width="98" x="286" y="565.9219"/><text fill="#000000" font-family="monospace" font-size="13" lengthAdjust="spacing" textLength="80" x="292" y="581.9888">git commit</text><text fill="#000000" font-family="sans-serif" font-size="13" lengthAdjust="spacing" textLength="4" x="372" y="581.9888"> </text><rect fill="#FFFFFF" height="23" style="stroke:#181818;stroke-width:0.5;" width="513" x="57" y="604.0547"/><text fill="#000000" font-family="sans-serif" font-size="13" lengthAdjust="spacing" textLength="86" x="270.5" y="620.1216">store commit</text><polygon fill="#800080" points="270,643.7539,280,647.7539,270,651.7539,274,647.7539" style="stroke:#800080;stroke-width:1.0;"/><line style="stroke:#800080;stroke-width:1.5;stroke-dasharray:2.0,2.0;" x1="209.5" x2="276" y1="647.7539" y2="647.7539"/><polygon fill="#FFFFFF" points="146,637.1875,194,637.1875,204,648.1875,194,660.1875,146,660.1875,136,648.1875,146,637.1875" style="stroke:#181818;stroke-width:0.5;"/><text fill="#000000" font-family="sans-serif" font-size="13" lengthAdjust="spacing" textLength="44" x="148" y="653.2544">staged</text><ellipse cx="363.5" cy="680.1367" fill="none" rx="4" ry="4" style="stroke:#800080;stroke-width:1.5;"/><polygon fill="#800080" points="346.5,676.8867,356.5,680.8867,346.5,684.8867,350.5,680.8867" style="stroke:#800080;stroke-width:1.0;"/><line style="stroke:#800080;stroke-width:1.5;stroke-dasharray:2.0,2.0;" x1="287" x2="352.5" y1="680.8867" y2="680.8867"/><polygon fill="#FFFFFF" points="379,670.3203,453,670.3203,463,681.3203,453,693.3203,379,693.3203,369,681.3203,379,670.3203" style="stroke:#181818;stroke-width:0.5;"/><text fill="#000000" font-family="sans-serif" font-size="13" lengthAdjust="spacing" textLength="70" x="381" y="686.3872">committed</text><rect fill="#EEEEEE" height="3" style="stroke:#EEEEEE;stroke-width:1.0;" width="670" x="0" y="744.0195"/><line style="stroke:#191970;stroke-width:1.0;" x1="0" x2="670" y1="744.0195" y2="744.0195"/><line style="stroke:#191970;stroke-width:1.0;" x1="0" x2="670" y1="747.0195" y2="747.0195"/><rect fill="#EEEEEE" height="23.1328" style="stroke:#191970;stroke-width:2.0;" width="90" x="290" y="733.4531"/><text fill="#000000" font-family="monospace" font-size="13" lengthAdjust="spacing" textLength="72" x="296" y="749.52">git fetch</text><text fill="#000000" font-family="sans-serif" font-size="13" lengthAdjust="spacing" textLength="4" x="368" y="749.52"> </text><rect fill="#FFFFFF" height="23" style="stroke:#181818;stroke-width:0.5;" width="513" x="57" y="771.5859"/><text fill="#000000" font-family="sans-serif" font-size="13" lengthAdjust="spacing" textLength="146" x="240.5" y="787.6528">download commit data</text><ellipse cx="363.5" cy="804.9688" fill="none" rx="4" ry="4" style="stroke:#800080;stroke-width:1.5;"/><polygon fill="#800080" points="380.5,801.7188,370.5,805.7188,380.5,809.7188,376.5,805.7188" style="stroke:#800080;stroke-width:1.0;"/><line style="stroke:#800080;stroke-width:1.5;stroke-dasharray:2.0,2.0;" x1="378.5" x2="451" y1="805.7188" y2="805.7188"/><rect fill="#EEEEEE" height="3" style="stroke:#EEEEEE;stroke-width:1.0;" width="670" x="0" y="859.2852"/><line style="stroke:#191970;stroke-width:1.0;" x1="0" x2="670" y1="859.2852" y2="859.2852"/><line style="stroke:#191970;stroke-width:1.0;" x1="0" x2="670" y1="862.2852" y2="862.2852"/><rect fill="#EEEEEE" height="23.1328" style="stroke:#191970;stroke-width:2.0;" width="82" x="294" y="848.7188"/><text fill="#000000" font-family="monospace" font-size="13" lengthAdjust="spacing" textLength="64" x="300" y="864.7856">git pull</text><text fill="#000000" font-family="sans-serif" font-size="13" lengthAdjust="spacing" textLength="4" x="364" y="864.7856"> </text><rect fill="#FFFFFF" height="23" style="stroke:#181818;stroke-width:0.5;" width="513" x="57" y="886.8516"/><text fill="#000000" font-family="sans-serif" font-size="13" lengthAdjust="spacing" textLength="241" x="193" y="902.9185">merge content into local from remote</text><polygon fill="#800080" points="380,926.5508,370,930.5508,380,934.5508,376,930.5508" style="stroke:#800080;stroke-width:1.0;"/><line style="stroke:#800080;stroke-width:1.5;stroke-dasharray:2.0,2.0;" x1="374" x2="528" y1="930.5508" y2="930.5508"/><polygon fill="#FFFFFF" points="544,919.9844,650,919.9844,660,930.9844,650,942.9844,544,942.9844,534,930.9844,544,919.9844" style="stroke:#181818;stroke-width:0.5;"/><text fill="#000000" font-family="sans-serif" font-size="13" lengthAdjust="spacing" textLength="102" x="546" y="936.0513">behind/diverged</text><polygon fill="#800080" points="303,950.1172,293,954.1172,303,958.1172,299,954.1172" style="stroke:#800080;stroke-width:1.0;"/><line style="stroke:#800080;stroke-width:1.5;stroke-dasharray:2.0,2.0;" x1="297" x2="363" y1="954.1172" y2="954.1172"/><ellipse cx="99" cy="976.9336" fill="none" rx="4" ry="4" style="stroke:#800080;stroke-width:1.5;"/><polygon fill="#800080" points="116,973.6836,106,977.6836,116,981.6836,112,977.6836" style="stroke:#800080;stroke-width:1.0;"/><line style="stroke:#800080;stroke-width:1.5;stroke-dasharray:2.0,2.0;" x1="114" x2="286" y1="977.6836" y2="977.6836"/><polygon fill="#FFFFFF" points="15,967.1172,85,967.1172,95,978.1172,85,990.1172,15,990.1172,5,978.1172,15,967.1172" style="stroke:#181818;stroke-width:0.5;"/><text fill="#000000" font-family="sans-serif" font-size="13" lengthAdjust="spacing" textLength="66" x="17" y="983.1841">up to date</text><rect fill="#EEEEEE" height="3" style="stroke:#EEEEEE;stroke-width:1.0;" width="670" x="0" y="1040.8164"/><line style="stroke:#191970;stroke-width:1.0;" x1="0" x2="670" y1="1040.8164" y2="1040.8164"/><line style="stroke:#191970;stroke-width:1.0;" x1="0" x2="670" y1="1043.8164" y2="1043.8164"/><rect fill="#EEEEEE" height="23.1328" style="stroke:#191970;stroke-width:2.0;" width="82" x="294" y="1030.25"/><text fill="#000000" font-family="monospace" font-size="13" lengthAdjust="spacing" textLength="64" x="300" y="1046.3169">git push</text><text fill="#000000" font-family="sans-serif" font-size="13" lengthAdjust="spacing" textLength="4" x="364" y="1046.3169"> </text><rect fill="#FFFFFF" height="23" style="stroke:#181818;stroke-width:0.5;" width="513" x="57" y="1068.3828"/><text fill="#000000" font-family="sans-serif" font-size="13" lengthAdjust="spacing" textLength="230" x="198.5" y="1084.4497">merge content from local to remote</text><polygon fill="#800080" points="435,1108.082,445,1112.082,435,1116.082,439,1112.082" style="stroke:#800080;stroke-width:1.0;"/><line style="stroke:#800080;stroke-width:1.5;stroke-dasharray:2.0,2.0;" x1="287" x2="441" y1="1112.082" y2="1112.082"/><polygon fill="#FFFFFF" points="169,1101.5156,272,1101.5156,282,1112.5156,272,1124.5156,169,1124.5156,159,1112.5156,169,1101.5156" style="stroke:#181818;stroke-width:0.5;"/><text fill="#000000" font-family="sans-serif" font-size="13" lengthAdjust="spacing" textLength="99" x="171" y="1117.5825">ahead/diverged</text><ellipse cx="528.5" cy="1144.4648" fill="none" rx="4" ry="4" style="stroke:#800080;stroke-width:1.5;"/><polygon fill="#800080" points="511.5,1141.2148,521.5,1145.2148,511.5,1149.2148,515.5,1145.2148" style="stroke:#800080;stroke-width:1.0;"/><line style="stroke:#800080;stroke-width:1.5;stroke-dasharray:2.0,2.0;" x1="452" x2="517.5" y1="1145.2148" y2="1145.2148"/><polygon fill="#FFFFFF" points="544,1134.6484,614,1134.6484,624,1145.6484,614,1157.6484,544,1157.6484,534,1145.6484,544,1134.6484" style="stroke:#181818;stroke-width:0.5;"/><text fill="#000000" font-family="sans-serif" font-size="13" lengthAdjust="spacing" textLength="66" x="546" y="1150.7153">up to date</text><!--SRC=[hLHBJ-Cm4BxdLupAeL8He3ti1PLAMzYNr4gh1SJPn9F4gcDdROU2bltlExQJDgJFGosrSJAlx_iyus4oX5-IAVSudy4z_gbHfGXSiDom4coXbqBbi2n4Ma35ZBEWCs1WiDB0309c6QOEETIM72dP2pD2rnPouI3LPSaKjvV9C27JFRgwekVDoLQIZArxapX9WD0OlOI_j0EO2OMtMce3LMqgYQkF3qHaeT1Q-7JvcRx-ev_I3fkuAKiNkT6ruZ6QU3iCRkEhfb1Y5qAH4gHEAzUTU14SpJUjtBrtWdOfRKecTqTCjQ7_M2gkkU1Av8MRoXgtbPg932Nnw0CbSctKdg1-kKOStm9qj28L5JM2FV49FUjNcEcKIJYR2-Lk3R8oIQfrGHYCHa_QB7oZFHZ4qMW0p8AZBS1ud0c9TZBfH_nK75-zQxCeGlXF564Tov5lXlpu-kMk4-53P86CKuZ1RDF_RjhrZlxy6JoeGbYdpHl59AWu4CT8z3UMlflElXVQkgVGFKTaDHjP3oCt7v2lKGnXJkrD0fpw76zkO308Kosrmi60ajDac30zB3NQsclWUgca9bmAb-6EIBnBG7fnCO56FZW_fx_hf7sFfk15Up86qpegdklQ5D_9f9iceNr8cBo_ltU0CiwtmoG3f0LJ918u7VDvf35RIDpK3ClNB482YPc3xhg6MZb3muXyvMJyA7vqYXtPn-UlHtfSiDqewVO4tnFOE7z0kL9cfUTHA5VoxH5TjqVLABk7MmJcTj7RpgtFQHFJOKwDg2T6dQ5BYmFTtHmSPuw51c-xU5M_QPjUwggMSdlc4atkvL0EQU3fbgHCuShCZ2vfaFobSc2KTZ9zneBKlUBYnHVXHqvTVxJszLRbXuZ4m8Pmbx4jZc4SQ4R6b6hDjtC9cAryjy1XFgPBjtCyfgLxIBGUf_y0]--></g></svg>