<?xml version="1.0" encoding="UTF-8" standalone="no"?><svg xmlns="http://www.w3.org/2000/svg" xmlns:xlink="http://www.w3.org/1999/xlink" contentStyleType="text/css" height="359px" preserveAspectRatio="none" style="width:881px;height:359px;background:#FFFFFF;" version="1.1" viewBox="0 0 881 359" width="881px" zoomAndPan="magnify"><defs/><g><rect height="26.7999" style="stroke:#00000000;stroke-width:1.0;fill:none;" width="127" x="370" y="5"/><text fill="#000000" font-family="sans-serif" font-size="14" font-weight="bold" lengthAdjust="spacing" textLength="117" x="375" y="23.9999">Local Repository</text><!--MD5=[fa7c58dfa314309f2b22a46b1d39e0cf]
cluster gitlocal--><g id="cluster_gitlocal"><path d="M8.5,43.7999 L64.5,43.7999 A3.75,3.75 0 0 1 67,46.2999 L74,66.5999 L690.5,66.5999 A2.5,2.5 0 0 1 693,69.0999 L693,350.2999 A2.5,2.5 0 0 1 690.5,352.7999 L8.5,352.7999 A2.5,2.5 0 0 1 6,350.2999 L6,46.2999 A2.5,2.5 0 0 1 8.5,43.7999 " style="stroke:#000000;stroke-width:1.5;fill:none;"/><line style="stroke:#000000;stroke-width:1.5;fill:none;" x1="6" x2="74" y1="66.5999" y2="66.5999"/><text fill="#000000" font-family="sans-serif" font-size="14" font-weight="bold" lengthAdjust="spacing" textLength="55" x="10" y="59.7999">git local</text></g><!--MD5=[a1f9ffdfe86795401c0ccc5825e1b873]
cluster objectdb--><g id="cluster_objectdb"><rect height="219" rx="2.5" ry="2.5" style="stroke:#181818;stroke-width:1.0;fill:none;" width="179" x="261" y="104.7999"/><path d="M336,104.7999 L336,114.5999 L326,124.5999 L261,124.5999 " fill="none" style="stroke:#181818;stroke-width:1.0;"/><text fill="#000000" font-family="sans-serif" font-size="14" font-weight="bold" lengthAdjust="spacing" textLength="65" x="264" y="119.7999">object db</text></g><!--MD5=[2265efe58f509802ec1fe9822d1e6e2b]
cluster index--><g id="cluster_index"><rect height="242" rx="2.5" ry="2.5" style="stroke:#181818;stroke-width:1.0;fill:none;" width="201" x="468" y="86.7999"/><path d="M516,86.7999 L516,96.5999 L506,106.5999 L468,106.5999 " fill="none" style="stroke:#181818;stroke-width:1.0;"/><text fill="#000000" font-family="sans-serif" font-size="14" font-weight="bold" lengthAdjust="spacing" textLength="38" x="471" y="101.7999">index</text></g><!--MD5=[22e39c158ccd515e083392dc1f6fdf64]
cluster files--><g id="cluster_files"><path d="M719.5,63.7999 L749.5,63.7999 A3.75,3.75 0 0 1 752,66.2999 L759,86.5999 L871.5,86.5999 A2.5,2.5 0 0 1 874,89.0999 L874,262.2999 A2.5,2.5 0 0 1 871.5,264.7999 L719.5,264.7999 A2.5,2.5 0 0 1 717,262.2999 L717,66.2999 A2.5,2.5 0 0 1 719.5,63.7999 " style="stroke:#000000;stroke-width:1.5;fill:none;"/><line style="stroke:#000000;stroke-width:1.5;fill:none;" x1="717" x2="759" y1="86.5999" y2="86.5999"/><text fill="#000000" font-family="sans-serif" font-size="14" font-weight="bold" lengthAdjust="spacing" textLength="29" x="721" y="79.7999">files</text></g><!--MD5=[fc5f9d4d9d1338a8b7585b076669c338]
entity head--><g id="elem_head"><rect fill="#F1F1F1" height="39.5999" rx="2.5" ry="2.5" style="stroke:#181818;stroke-width:0.5;" width="59" x="22" y="153.7999"/><text fill="#000000" font-family="sans-serif" font-size="14" font-style="italic" lengthAdjust="spacing" textLength="29" x="37" y="170.7999">«ref»</text><text fill="#000000" font-family="sans-serif" font-size="14" font-weight="bold" lengthAdjust="spacing" textLength="39" x="32" y="187.5998">HEAD</text></g><!--MD5=[e6001af16d4774e0fdad2715570119d9]
entity master--><g id="elem_master"><rect fill="#F1F1F1" height="39.5999" rx="2.5" ry="2.5" style="stroke:#181818;stroke-width:0.5;" width="76" x="141" y="153.7999"/><text fill="#000000" font-family="sans-serif" font-size="14" font-style="italic" lengthAdjust="spacing" textLength="56" x="151" y="170.7999">«branch»</text><text fill="#000000" font-family="sans-serif" font-size="14" font-weight="bold" lengthAdjust="spacing" textLength="47" x="155.5" y="187.5998">master</text></g><g id="elem_commits"><rect fill="#F1F1F1" height="166.3994" style="stroke:#181818;stroke-width:0.5;" width="131" x="285" y="143.7999"/><text fill="#000000" font-family="sans-serif" font-size="14" font-weight="bold" lengthAdjust="spacing" textLength="60" x="320.5" y="159.7999">commits</text><line style="stroke:#181818;stroke-width:1.0;" x1="285" x2="416" y1="164.5999" y2="164.5999"/><text fill="#000000" font-family="sans-serif" font-size="14" lengthAdjust="spacing" textLength="55" x="290.5" y="180.5998">c331b4d</text><text fill="#000000" font-family="sans-serif" font-size="14" lengthAdjust="spacing" textLength="46" x="356" y="180.5998">gitign...</text><line style="stroke:#181818;stroke-width:1.0;" x1="351" x2="351" y1="164.5999" y2="185.3998"/><line style="stroke:#181818;stroke-width:1.0;" x1="285" x2="416" y1="185.3998" y2="185.3998"/><text fill="#000000" font-family="sans-serif" font-size="14" lengthAdjust="spacing" textLength="56" x="290" y="201.3997">6a338d8</text><text fill="#000000" font-family="sans-serif" font-size="14" lengthAdjust="spacing" textLength="51" x="356" y="201.3997">format...</text><line style="stroke:#181818;stroke-width:1.0;" x1="351" x2="351" y1="185.3998" y2="206.1997"/><line style="stroke:#181818;stroke-width:1.0;" x1="285" x2="416" y1="206.1997" y2="206.1997"/><text fill="#000000" font-family="sans-serif" font-size="14" lengthAdjust="spacing" textLength="55" x="290.5" y="222.1996">02c7a7a</text><text fill="#000000" font-family="sans-serif" font-size="14" lengthAdjust="spacing" textLength="50" x="356" y="222.1996">minor ...</text><line style="stroke:#181818;stroke-width:1.0;" x1="351" x2="351" y1="206.1997" y2="226.9996"/><line style="stroke:#181818;stroke-width:1.0;" x1="285" x2="416" y1="226.9996" y2="226.9996"/><text fill="#000000" font-family="sans-serif" font-size="14" lengthAdjust="spacing" textLength="55" x="290.5" y="242.9996">382421e</text><text fill="#000000" font-family="sans-serif" font-size="14" lengthAdjust="spacing" textLength="45" x="356" y="242.9996">finish...</text><line style="stroke:#181818;stroke-width:1.0;" x1="351" x2="351" y1="226.9996" y2="247.7996"/><line style="stroke:#181818;stroke-width:1.0;" x1="285" x2="416" y1="247.7996" y2="247.7996"/><text fill="#000000" font-family="sans-serif" font-size="14" lengthAdjust="spacing" textLength="52" x="292" y="263.7995">fa69673</text><text fill="#000000" font-family="sans-serif" font-size="14" lengthAdjust="spacing" textLength="49" x="356" y="263.7995">clean ...</text><line style="stroke:#181818;stroke-width:1.0;" x1="351" x2="351" y1="247.7996" y2="268.5995"/><line style="stroke:#181818;stroke-width:1.0;" x1="285" x2="416" y1="268.5995" y2="268.5995"/><text fill="#000000" font-family="sans-serif" font-size="14" lengthAdjust="spacing" textLength="56" x="290" y="284.5994">92241db</text><text fill="#000000" font-family="sans-serif" font-size="14" lengthAdjust="spacing" textLength="52" x="356" y="284.5994">reorga...</text><line style="stroke:#181818;stroke-width:1.0;" x1="351" x2="351" y1="268.5995" y2="289.3994"/><line style="stroke:#181818;stroke-width:1.0;" x1="285" x2="416" y1="289.3994" y2="289.3994"/><text fill="#000000" font-family="sans-serif" font-size="14" lengthAdjust="spacing" textLength="52" x="292" y="305.3994">fb090a5</text><text fill="#000000" font-family="sans-serif" font-size="14" lengthAdjust="spacing" textLength="55" x="356" y="305.3994">add py...</text><line style="stroke:#181818;stroke-width:1.0;" x1="351" x2="351" y1="289.3994" y2="310.1993"/></g><g id="elem_tree"><rect fill="#F1F1F1" height="97.5998" style="stroke:#181818;stroke-width:0.5;" width="153" x="492" y="126.2999"/><text fill="#000000" font-family="sans-serif" font-size="12" font-style="italic" lengthAdjust="spacing" textLength="31" x="553" y="138.3">«tree»</text><text fill="#000000" font-family="sans-serif" font-size="14" font-weight="bold" lengthAdjust="spacing" textLength="58" x="539.5" y="156.7">c331b4d</text><line style="stroke:#181818;stroke-width:1.0;" x1="492" x2="645" y1="161.5" y2="161.5"/><text fill="#000000" font-family="sans-serif" font-size="14" lengthAdjust="spacing" textLength="62" x="498" y="177.4999">598bec57</text><text fill="#000000" font-family="sans-serif" font-size="14" lengthAdjust="spacing" textLength="34" x="571" y="177.4999">.replit</text><line style="stroke:#181818;stroke-width:1.0;" x1="566" x2="566" y1="161.5" y2="182.2999"/><line style="stroke:#181818;stroke-width:1.0;" x1="492" x2="645" y1="182.2999" y2="182.2999"/><text fill="#000000" font-family="sans-serif" font-size="14" lengthAdjust="spacing" textLength="64" x="497" y="198.2998">73bb444b</text><text fill="#000000" font-family="sans-serif" font-size="14" lengthAdjust="spacing" textLength="53" x="571" y="198.2998">pypet.py</text><line style="stroke:#181818;stroke-width:1.0;" x1="566" x2="566" y1="182.2999" y2="203.0998"/><line style="stroke:#181818;stroke-width:1.0;" x1="492" x2="645" y1="203.0998" y2="203.0998"/><text fill="#000000" font-family="sans-serif" font-size="14" lengthAdjust="spacing" textLength="59" x="499.5" y="219.0997">26c39fd5</text><text fill="#000000" font-family="sans-serif" font-size="14" lengthAdjust="spacing" textLength="69" x="571" y="219.0997">readme.md</text><line style="stroke:#181818;stroke-width:1.0;" x1="566" x2="566" y1="203.0998" y2="223.8997"/></g><!--MD5=[4d322ea8dd82b98cde74f5f89a64e5fc]
class staging--><g id="elem_staging"><rect codeLine="39" fill="#F1F1F1" height="51.5999" id="staging" rx="2.5" ry="2.5" style="stroke:#181818;stroke-width:0.5;" width="97" x="520" y="260.7999"/><text fill="#000000" font-family="sans-serif" font-size="14" font-weight="bold" lengthAdjust="spacing" textLength="52" x="523" y="279.7999">staging</text><rect fill="#FFFFFF" height="16.4001" style="stroke:#000000;stroke-width:1.0;stroke-dasharray:2.0,2.0;" width="37" x="583" y="257.7999"/><text fill="#000000" font-family="sans-serif" font-size="12" font-style="italic" lengthAdjust="spacing" textLength="35" x="584" y="270.8">added</text><line style="stroke:#181818;stroke-width:0.5;" x1="521" x2="616" y1="287.5999" y2="287.5999"/><text fill="#000000" font-family="sans-serif" font-size="14" lengthAdjust="spacing" textLength="67" x="526" y="305.5998">+LICENSE</text></g><!--MD5=[570deeb7246d4c015e3298dcf0fb7433]
class working--><g id="elem_working"><rect codeLine="46" fill="#F1F1F1" height="149.9996" id="working" rx="2.5" ry="2.5" style="stroke:#181818;stroke-width:0.5;" width="125" x="733" y="98.7999"/><text fill="#000000" font-family="sans-serif" font-size="12" font-style="italic" lengthAdjust="spacing" textLength="54" x="740.5" y="115.8">«contents»</text><text fill="#000000" font-family="sans-serif" font-size="14" font-weight="bold" lengthAdjust="spacing" textLength="55" x="744" y="132.2">working</text><text fill="#000000" font-family="sans-serif" font-size="14" lengthAdjust="spacing" textLength="4" x="752.5" y="148.9999"> </text><text fill="#000000" font-family="sans-serif" font-size="14" font-weight="bold" lengthAdjust="spacing" textLength="26" x="756.5" y="148.9999">tree</text><rect fill="#FFFFFF" height="16.4001" style="stroke:#000000;stroke-width:1.0;stroke-dasharray:2.0,2.0;" width="54" x="807" y="95.7999"/><text fill="#000000" font-family="sans-serif" font-size="12" font-style="italic" lengthAdjust="spacing" textLength="52" x="808" y="108.8">+changes</text><line style="stroke:#181818;stroke-width:0.5;" x1="734" x2="857" y1="156.7999" y2="156.7999"/><text fill="#000000" font-family="sans-serif" font-size="14" lengthAdjust="spacing" textLength="57" x="739" y="174.7998">.gitignore</text><text fill="#000000" font-family="sans-serif" font-size="14" lengthAdjust="spacing" textLength="23" x="739" y="191.5997">bin/</text><text fill="#000000" font-family="sans-serif" font-size="14" lengthAdjust="spacing" textLength="59" x="739" y="208.3997">LICENSE</text><text fill="#000000" font-family="sans-serif" font-size="14" lengthAdjust="spacing" textLength="53" x="739" y="225.1996">pypet.py</text><text fill="#000000" font-family="sans-serif" font-size="14" lengthAdjust="spacing" textLength="69" x="739" y="241.9995">readme.md</text></g><!--MD5=[d2e45978c201357da014feb382d1514b]
link head to master--><g id="link_head_master"><path codeLine="57" d="M81.29,173.7999 C97.29,173.7999 117.51,173.7999 135.32,173.7999 " fill="none" id="head-to-master" style="stroke:#181818;stroke-width:1.0;"/><polygon fill="#181818" points="140.76,173.7999,131.76,169.7999,135.76,173.7999,131.76,177.7999,140.76,173.7999" style="stroke:#181818;stroke-width:1.0;"/></g><!--MD5=[6667abbda777f2ba915922312e0864dc]
link master to commits--><g id="link_master_commits"><path codeLine="58" d="M217.24,173.7999 C233.37,173.7999 252.8,173.7999 271.45,173.7999 " fill="none" id="master-to-commits" style="stroke:#181818;stroke-width:1.0;"/><polygon fill="none" points="284.5,173.7999,278.5,169.7999,272.5,173.7999,278.5,177.7999,284.5,173.7999" style="stroke:#181818;stroke-width:1.0;"/></g><!--MD5=[fd05c23e51a3de1a8645d839ac1125e1]
link commits to tree--><g id="link_commits_tree"><path codeLine="59" d="M429.5,173.7999 C429.5,173.7999 455.02,173.7999 463.73,173.7999 " fill="none" id="commits-tree" style="stroke:#181818;stroke-width:1.0;"/><polygon fill="#FFFFFF" points="483.8,173.7999,464.8,180.7999,464.8,166.7999,483.8,173.7999" style="stroke:#181818;stroke-width:1.0;"/><line style="stroke:#181818;stroke-width:2.0;" x1="461" x2="461" y1="180.7999" y2="166.7999"/><polygon fill="none" points="417.5,173.7999,423.5,177.7999,429.5,173.7999,423.5,169.7999,417.5,173.7999" style="stroke:#181818;stroke-width:1.0;"/></g><!--MD5=[751fa95a002f366b6234c45ced4a7471]
link staging to tree--><!--MD5=[3401d8fa9cd69e8b87cacf11e16ba7d4]
link tree to working--><!--MD5=[abe6a3cec4dc9623e009ff5394bf416b]
@startuml
' A PlantUML diagram showing the components of a local repository.
'

allowmixing
left to right direction
skinparam classattributeiconsize 0
skinparam pageMargin 10
hide class circle
hide empty members

title Local Repository

!startsub REPO_LOCAL

folder "git local" as gitlocal {

  card "**HEAD**" <<ref>> as head
  card "**master**" <<branch>> as master

  frame "**object db**" as objectdb {
      map "**commits**" as commits {
          c331b4d => gitign...
          6a338d8 => format...
          02c7a7a => minor ...
          382421e => finish...
          fa69673 => clean ...
          92241db => reorga...
          fb090a5 => add py...
      }
    }

  frame "**index**" as index {
    map "**c331b4d**" as tree <<tree>> {
      598bec57 => .replit
      73bb444b => pypet.py
      26c39fd5 => readme.md
    }

    class "**staging**" as staging<added> {
      +LICENSE
    }
  }
}

folder "**files**" as files {
  class "**  working**\n **tree**" as working<+changes> <<contents>> {
    .gitignore
    bin/
    LICENSE
    pypet.py
    readme.md
}

'le : down
'do : right

head -do-> master
master -do-o commits::c331b4d
commits::c331b4d o-do-||> tree
tree -le[hidden]- staging
tree -do[hidden]- working

!endsub REPO_LOCAL
@enduml

@startuml

allowmixing
left to right direction
skinparam classattributeiconsize 0
skinparam pageMargin 10
hide class circle
hide empty members

title Local Repository


folder "git local" as gitlocal {

  card "**HEAD**" <<ref>> as head
  card "**master**" <<branch>> as master

  frame "**object db**" as objectdb {
      map "**commits**" as commits {
          c331b4d => gitign...
          6a338d8 => format...
          02c7a7a => minor ...
          382421e => finish...
          fa69673 => clean ...
          92241db => reorga...
          fb090a5 => add py...
      }
    }

  frame "**index**" as index {
    map "**c331b4d**" as tree <<tree>> {
      598bec57 => .replit
      73bb444b => pypet.py
      26c39fd5 => readme.md
    }

    class "**staging**" as staging<added> {
      +LICENSE
    }
  }
}

folder "**files**" as files {
  class "**  working**\n **tree**" as working<+changes> <<contents>> {
    .gitignore
    bin/
    LICENSE
    pypet.py
    readme.md
}


head -do-> master
master -do-o commits::c331b4d
commits::c331b4d o-do-||> tree
tree -le[hidden]- staging
tree -do[hidden]- working

@enduml

PlantUML version 1.2022.5(Sat Apr 30 10:55:52 GMT 2022)
(GPL source distribution)
Java Runtime: OpenJDK Runtime Environment
JVM: OpenJDK 64-Bit Server VM
Default Encoding: UTF-8
Language: en
Country: US
--></g></svg>