<?xml version="1.0" encoding="UTF-8"?><svg xmlns="http://www.w3.org/2000/svg" width="330" height="126" version="1.0" shape-rendering="geometricPrecision"><defs><filter id="shadowBlur" x="0" y="0" width="200%" height="200%"><feOffset in="SourceGraphic" dx="3.0003002" dy="3.0003002" result="offOut"></feOffset><feGaussianBlur in="offOut" stdDeviation="3"></feGaussianBlur></filter></defs><g stroke-width="1" stroke-linecap="square" stroke-linejoin="round"><rect x="0" y="0" width="330" height="126" style="fill: #ffffff"></rect><path stroke="#969696" fill="#969696" filter="url(#shadowBlur)" d="M55.0 35.0 L145.0 35.0 L145.0 91.0 L55.0 91.0 z"></path><path stroke="#969696" fill="#969696" filter="url(#shadowBlur)" d="M215.0 35.0 L305.0 35.0 L305.0 91.0 L215.0 91.0 z"></path><path stroke="#000000" stroke-width="1.0" stroke-linecap="round" stroke-linejoin="round" fill="white" d="M55.0 35.0 L145.0 35.0 L145.0 91.0 L55.0 91.0 z"></path><path stroke="#000000" stroke-width="1.0" stroke-linecap="round" stroke-linejoin="round" fill="white" d="M215.0 35.0 L305.0 35.0 L305.0 91.0 L215.0 91.0 z"></path><path stroke="#000000" stroke-width="1.0" stroke-linecap="round" stroke-linejoin="round" fill="none" d="M145.0 63.0 L215.0 63.0 "></path><path stroke="#000000" stroke-width="1.0" stroke-linecap="round" stroke-linejoin="round" fill="#ffffff" d="M148.5 63.0 L148.38074 63.90587 L148.03108 64.75 L147.47487 65.47488 L146.75 66.03109 L145.90587 66.38074 L145.0 66.5 L144.09413 66.38074 L143.25 66.03109 L142.52513 65.47488 L141.96892 64.75 L141.61926 63.90587 L141.5 63.0 L141.61926 62.09413 L141.96892 61.25 L142.52513 60.525127 L143.25 59.96891 L144.09413 59.61926 L145.0 59.5 L145.90587 59.61926 L146.75 59.96891 L147.47487 60.525127 L148.03108 61.25 L148.38074 62.09413 L148.5 63.0 z"></path><path stroke="#000000" stroke-width="1.0" stroke-linecap="round" stroke-linejoin="round" fill="#ffffff" d="M218.5 63.0 L218.38074 63.90587 L218.03108 64.75 L217.47487 65.47488 L216.75 66.03109 L215.90587 66.38074 L215.0 66.5 L214.09413 66.38074 L213.25 66.03109 L212.52513 65.47488 L211.96892 64.75 L211.61926 63.90587 L211.5 63.0 L211.61926 62.09413 L211.96892 61.25 L212.52513 60.525127 L213.25 59.96891 L214.09413 59.61926 L215.0 59.5 L215.90587 59.61926 L216.75 59.96891 L217.47487 60.525127 L218.03108 61.25 L218.38074 62.09413 L218.5 63.0 z"></path><text x="71" y="53" font-family="sans-serif" font-size="12" stroke="none" fill="#000000"><![CDATA[home]]></text><text x="230" y="54" font-family="sans-serif" font-size="14" stroke="none" fill="#000000"><![CDATA[town]]></text><text x="230" y="68" font-family="sans-serif" font-size="15" stroke="none" fill="#000000"><![CDATA[square]]></text></g></svg>